<svg id="6692965b-d40e-4cc7-8713-8ec50f2cbfc8" data-name="Capa 1" xmlns="http://www.w3.org/2000/svg" viewBox="0 0 120 120"><defs><style>.\38 a422516-0967-4006-ac5f-a7e3b379ae85,.b9d311fd-cc17-40d9-b6a9-986c74d63769{fill:#fff;}.\38 90a4a5a-a4f2-436e-adce-65ce4e63c6e9,.b9d311fd-cc17-40d9-b6a9-986c74d63769{stroke:#fff;stroke-miterlimit:10;}.\38 90a4a5a-a4f2-436e-adce-65ce4e63c6e9{fill:none;stroke-width:3px;}</style></defs><title>additional registration svg</title><path class="b9d311fd-cc17-40d9-b6a9-986c74d63769" d="M95.51,10l-0.1,0H11.27c-0.82.33-1.46,0.89-1.45,2.75q0.07,32.1,0,64.2V96c0,1.67.61,2.17,2.63,2.17h51A2,2,0,0,0,65,97.4,1.24,1.24,0,0,0,65.11,96c-0.33-.61-0.81-1-2.17-1H13.73V13.19H93.24V29.07q0,13.78,0,27.56a1.72,1.72,0,0,0,1.85,1.83A2.1,2.1,0,0,0,96.4,58,1.68,1.68,0,0,0,97,56.72q0-22.49,0-45C97,10.93,96.76,10.45,95.51,10Z"/><path class="b9d311fd-cc17-40d9-b6a9-986c74d63769" d="M27,33.4H74.5c1.3,0,2.77,0,4.09-.09a2.25,2.25,0,0,0,1.62-.87,2,2,0,0,0,.32-1.85c-0.15-.5-0.52-1.66-3.12-1.66H27.07a7.25,7.25,0,0,0-1.38.12,2.25,2.25,0,0,0-1.46.95,2,2,0,0,0-.3,1.67C24.08,32.19,24.4,33.39,27,33.4Z"/><path class="b9d311fd-cc17-40d9-b6a9-986c74d63769" d="M77.67,48h0q-9,0-18.09,0H34.14L29.9,48c-1.32,0-2.66,0-4,.08a2.16,2.16,0,0,0-1.6.84,2.19,2.19,0,0,0-.39,1.93c0.15,0.53.49,1.79,3.13,1.79H77.42a6.53,6.53,0,0,0,1.1-.05,2.6,2.6,0,0,0,1.86-1.23,2,2,0,0,0,.09-1.85C80,48.6,79.45,48,77.67,48Z"/><rect class="8a422516-0967-4006-ac5f-a7e3b379ae85" x="24.24" y="66.24" width="39.37" height="5.62" rx="2.81" ry="2.81"/><circle class="890a4a5a-a4f2-436e-adce-65ce4e63c6e9" cx="90.86" cy="85.46" r="21.95"/><path class="b9d311fd-cc17-40d9-b6a9-986c74d63769" d="M92.56,83.49h4.85a2,2,0,0,1,2,2h0a2,2,0,0,1-2,2H92.56v5.8a2,2,0,0,1-2,2H90.31a2,2,0,0,1-2-2v-5.8H83.42a2,2,0,0,1-2-2h0a2,2,0,0,1,2-2h4.88v-5.3a2,2,0,0,1,2-2h0.25a2,2,0,0,1,2,2v5.3Z"/></svg>