<svg id="086061ed-6f83-40f7-85b3-adc4d8a70369" data-name="Capa 1" xmlns="http://www.w3.org/2000/svg" viewBox="0 0 120 120"><defs><style>.\32 c7dec42-d300-424f-b8df-e6db0b75f7da{fill:#2881bd;}</style></defs><title>airline tickets</title><path class="2c7dec42-d300-424f-b8df-e6db0b75f7da" d="M5.25,103.61a11.35,11.35,0,0,1,1.11-1.11Q24.39,88.74,42.44,75c0.17-.13.33-0.27,0.51-0.39a1.59,1.59,0,0,1,2.2.21A1.46,1.46,0,0,1,44.71,77c-2.64,2-5.3,4.05-8,6.07L8.12,104.91c-1.27,1-1.93.9-2.87-.23v-1.07Z"/><path class="2c7dec42-d300-424f-b8df-e6db0b75f7da" d="M68.94,47A41.75,41.75,0,0,0,65,43.41c-5.73-4.07-11.55-8-17.32-12.06a16.65,16.65,0,0,1-2.38-2,3.37,3.37,0,0,1-.56-4.3A13.7,13.7,0,0,1,49,20.39,4.88,4.88,0,0,1,53.72,20c5.21,1.86,10.41,3.77,15.6,5.67S79.72,29.45,84.9,31.4a3.45,3.45,0,0,0,3.77-.9c4.4-3.71,8.81-7.4,13.31-11a13.17,13.17,0,0,1,6.42-2.42c2.88-.42,5.59,1.18,5.9,3.77a8.64,8.64,0,0,1-.76,4.1,23,23,0,0,1-6.85,8.84c-3.27,2.74-6.5,5.53-9.79,8.23a3.13,3.13,0,0,0-1.15,3.19c1.36,9.71,2.72,19.41,4,29.13a45.11,45.11,0,0,1,.39,6.88,5.45,5.45,0,0,1-2.24,4.2,20.8,20.8,0,0,1-4,2.39,3.3,3.3,0,0,1-4.39-1.49A15.26,15.26,0,0,1,88.43,84c-2.6-6.64-5.14-13.3-7.79-19.93C79.94,62.38,79,60.76,78,59l-3,2.28c-3.4,2.63-6.79,5.28-10.21,7.89a1.41,1.41,0,0,0-.64,1.77c0.45,1.53.83,3.09,1.13,4.65a6.53,6.53,0,0,1-2.24,6.8,4.3,4.3,0,0,1-6.41-.69c-3.29-4.05-6.51-8.17-9.76-12.26q-2.12-2.67-4.26-5.33c-1.36-1.68-1.35-3,0-4.67l0.22-.23c3-3,4.29-4.07,8.84-1.59,1.12,0.61,2.28,1.15,3.46,1.65a1.13,1.13,0,0,0,1-.15C60.41,55.14,64.54,51.19,68.94,47Zm9.71,7.67c0.24,0.32.39,0.51,0.53,0.71A52.58,52.58,0,0,1,85.45,68c1.94,5.37,4,10.7,6,16a1.21,1.21,0,0,0,1.68,1,5.37,5.37,0,0,0,4.06-5.77c-0.26-3-.69-6.07-1.1-9.09-1.09-8-2.18-16-3.32-24.06a6.25,6.25,0,0,1,2.31-6.32c3.73-3,7.35-6.16,11-9.28a17.56,17.56,0,0,0,4.94-7.1c0.87-2.24.06-3.23-2.36-3l-0.42.06a12.87,12.87,0,0,0-6.11,2.84c-3.88,3.27-7.72,6.6-11.6,9.89a9.83,9.83,0,0,1-1.92,1.32c-2,1-3.88.35-5.76-.35-9.48-3.53-18.94-7.1-28.43-10.58-3.41-1.25-3.61-1.11-6,1.66-1.56,1.84-1.54,2,.45,3.37q8.29,5.72,16.59,11.42a21,21,0,0,1,6.93,7.56,2.45,2.45,0,0,1-.24.31q-7.34,7-14.69,13.95a2.22,2.22,0,0,1-2.75.36c-2-1-4-2-6-2.92A2.1,2.1,0,0,0,47,59.25a21.83,21.83,0,0,0-2.57,2.21l4.15,5.3,9.83,12.61c0.91,1.17,1.81,1.23,2.84.18a3.6,3.6,0,0,0,1-3.44c-0.41-1.84-.81-3.68-1.34-5.48a2.69,2.69,0,0,1,1.11-3.31c3.19-2.37,6.31-4.85,9.47-7.27C73.86,58.27,76.22,56.51,78.66,54.66Z"/><path class="2c7dec42-d300-424f-b8df-e6db0b75f7da" d="M26,101.86a3.06,3.06,0,0,1-1.12-.91A2.69,2.69,0,0,1,25,99.28a2.87,2.87,0,0,1,1-.92q10.51-8.08,21-16.15a3.12,3.12,0,0,1,1.56-.8,2,2,0,0,1,1.55.74,2.79,2.79,0,0,1-.29,1.72,1.68,1.68,0,0,1-.63.55Q38.41,92.69,27.57,101A15.25,15.25,0,0,1,26,101.86Z"/><path class="2c7dec42-d300-424f-b8df-e6db0b75f7da" d="M21.15,85a3.45,3.45,0,0,1-1.23-.94,2.59,2.59,0,0,1,.1-1.59,2,2,0,0,1,.76-0.72L37.59,69a3.59,3.59,0,0,1,.8-0.51,1.29,1.29,0,0,1,1.77.48,3,3,0,0,1-.06,1.76,1.88,1.88,0,0,1-.76.71Q31,77.82,22.61,84.13C22.19,84.45,21.71,84.68,21.15,85Z"/><path class="2c7dec42-d300-424f-b8df-e6db0b75f7da" d="M13.32,90.64a2.44,2.44,0,0,1-1-.77,2,2,0,0,1,.06-1.65,34.05,34.05,0,0,1,4.29-3.28,1.76,1.76,0,0,1,1.66.41,1.74,1.74,0,0,1,0,1.69c-1.4,1.23-2.95,2.3-4.45,3.42A2.43,2.43,0,0,1,13.32,90.64Z"/><path class="2c7dec42-d300-424f-b8df-e6db0b75f7da" d="M18.15,107.48a2.73,2.73,0,0,1-1-1,1.94,1.94,0,0,1,.26-1.63,29.37,29.37,0,0,1,4.06-3.07,1.88,1.88,0,0,1,1.76.35,1.71,1.71,0,0,1,.06,1.68c-1.4,1.24-2.94,2.3-4.44,3.42A2.71,2.71,0,0,1,18.15,107.48Z"/></svg>