<svg id="fb70ba1d-9184-4e2a-9a65-e133e07a159c" data-name="Capa 1" xmlns="http://www.w3.org/2000/svg" viewBox="0 0 120 120"><defs><style>.\35 158ff4c-9084-447c-bac3-7651f60120bb{fill:#fff;}</style></defs><title>car rental request</title><path class="5158ff4c-9084-447c-bac3-7651f60120bb" d="M114.33,76.66l-0.19-.08v-4q0-3.18,0-6.37c0-1.79-.18-2-1.9-2.6l-2.18-.74c-1.78-.61-3.61-1.23-5.44-1.76a5.44,5.44,0,0,1-3.34-2.63A26.81,26.81,0,0,0,83.23,45.71a69.28,69.28,0,0,0-21.75-.83C49.37,46.27,39.95,51,32.69,59.34a2.78,2.78,0,0,1-1.65.78c-1.34.18-2.71,0.34-4,.49-2.1.24-4.28,0.49-6.4,0.84a24.5,24.5,0,0,0-9.93,3.84C8.1,67,6.93,69.25,7.11,72c0.07,1,0,2.06,0,3,0,0.38,0,.73,0,1.06V76.2L5.26,78v8.27a2.29,2.29,0,0,0,2.32,1.11c1.32,0,2.67,0,4,0h1.7c2.12,0,2.38-.25,2.58-2.38,0.51-5.4,3.18-9.2,8-11.3a12.68,12.68,0,0,1,13.5,1.71,13,13,0,0,1,5.1,10.07c0.08,1.39.56,1.89,1.83,1.89q16.41,0,32.83,0a1.58,1.58,0,0,0,1.83-1.67c0-.27.05-0.54,0.07-0.8s0.05-.62.09-0.93A13.34,13.34,0,0,1,94.1,72.64a13.37,13.37,0,0,1,11.37,12.64c0.11,1.65.55,2.06,2.22,2.06H108c2,0,4,0,6,0,1.48,0,2-.54,2-2,0-1.64,0-3.28,0-4.93V79.11C116,77.53,115.83,77.28,114.33,76.66Zm-24.18-25,0.46,0.28a24.59,24.59,0,0,1,7.67,7.59L98.6,60H90.16V51.67ZM67.82,47.44h0.31l2.34,0.09c1.72,0.06,3.49.13,5.24,0.26a35.8,35.8,0,0,1,10.29,2,1.57,1.57,0,0,1,1,.94c0,2.39,0,4.84,0,7.2V60H67.82V47.44Zm-31,12.08c7-7.08,16-10.95,27.42-11.82l0.32,0V60H36.33Zm76,24.64h-4.32l0-.26a16.5,16.5,0,0,0-7.36-11.82A15.91,15.91,0,0,0,90.7,69.46,16.58,16.58,0,0,0,75.87,83.9l0,0.26H45.49l0-.26a16.7,16.7,0,0,0-16.3-14.52H29.09A16.74,16.74,0,0,0,12.72,83.92l0,0.25H8.43V80l0.25,0c1.39-.25,1.63-1.18,1.58-2.8,0-1,0-1.94,0-3,0-.46,0-0.92,0-1.4v-0.3H12A1.7,1.7,0,0,0,13.91,71c0.06-1.2-1-1.54-1.85-1.61A1,1,0,0,1,11.4,69l-0.27-.26,0.32-.2,0.9-.6a18,18,0,0,1,2.05-1.26,30.93,30.93,0,0,1,11.49-3c3.74-.29,7.72-0.43,12.18-0.44,20.66,0,41.67,0,62,0a7.5,7.5,0,0,1,2.2.36c0.93,0.29,1.85.61,2.78,0.92,1.41,0.48,2.88,1,4.33,1.39S111.27,67,111,68.36c0,0.13,0,.26,0,0.42l-0.05.53-0.24,0a8.82,8.82,0,0,1-1,0,2.79,2.79,0,0,0-1.92.43,1.62,1.62,0,0,0-.32,1.22c0.06,1.35.88,1.44,2.31,1.47,0.34,0,.69,0,1,0.06l0.26,0v0.27c0,0.47,0,.93,0,1.4,0,1,0,2.11,0,3.16,0,1.35.23,2.29,1.6,2.52l0.25,0v4.16Z"/><path class="5158ff4c-9084-447c-bac3-7651f60120bb" d="M29.49,74.68h0A10.17,10.17,0,0,0,19.33,84.8a10,10,0,0,0,3,7.13,10.11,10.11,0,0,0,7.16,3h0A10.15,10.15,0,0,0,39.63,84.81,10.19,10.19,0,0,0,29.49,74.68Zm0,16.74H29.42a6.7,6.7,0,0,1-6.57-6.65A6.62,6.62,0,1,1,29.48,91.42Z"/><path class="5158ff4c-9084-447c-bac3-7651f60120bb" d="M92.06,74.68h0A10.17,10.17,0,0,0,81.9,84.8a10,10,0,0,0,3,7.13,10.11,10.11,0,0,0,7.16,3h0A10.15,10.15,0,0,0,102.2,84.81,10.19,10.19,0,0,0,92.06,74.68Zm0,16.74H92a6.7,6.7,0,0,1-6.57-6.65A6.62,6.62,0,1,1,92.05,91.42Z"/></svg>