<svg id="2ccab11d-54f5-4a29-983d-895858c232f1" data-name="Capa 1" xmlns="http://www.w3.org/2000/svg" viewBox="0 0 120 120"><defs><style>.\39 7d2b6fe-eaef-4ac7-b9a7-a1c930c866e5{fill:#2881bd;}</style></defs><title>car rental</title><path class="97d2b6fe-eaef-4ac7-b9a7-a1c930c866e5" d="M116.74,72.72l-0.2-.08V68.42q0-3.35,0-6.7c0-1.88-.19-2.13-2-2.74l-2.29-.77c-1.87-.64-3.8-1.3-5.72-1.85A5.72,5.72,0,0,1,103,53.6,28.2,28.2,0,0,0,84,40.16a72.87,72.87,0,0,0-22.88-.88C48.39,40.76,38.48,45.74,30.85,54.5a2.92,2.92,0,0,1-1.73.82c-1.41.19-2.85,0.35-4.24,0.51-2.21.25-4.5,0.51-6.73,0.88a25.77,25.77,0,0,0-10.44,4C5,62.61,3.76,64.93,3.94,67.86,4,68.94,4,70,4,71c0,0.4,0,.77,0,1.12v0.14L2,74.11v8.7A2.41,2.41,0,0,0,4.44,84c1.39,0,2.8,0,4.17,0h1.79c2.23,0,2.51-.26,2.72-2.5,0.53-5.68,3.35-9.68,8.37-11.89a13.34,13.34,0,0,1,14.2,1.8A13.71,13.71,0,0,1,41,82c0.08,1.46.58,2,1.93,2q17.27,0,34.54,0a1.66,1.66,0,0,0,1.93-1.76c0-.28.05-0.56,0.08-0.84s0.06-.65.09-1A14,14,0,0,1,95.45,68.49a14.06,14.06,0,0,1,12,13.29c0.12,1.74.58,2.16,2.34,2.17H110c2.11,0,4.23,0,6.34,0,1.55,0,2.11-.57,2.11-2.13,0-1.73,0-3.46,0-5.18V75.3C118.49,73.64,118.31,73.37,116.74,72.72ZM91.3,46.43l0.48,0.29a25.87,25.87,0,0,1,8.07,8l0.33,0.49H91.3V46.43ZM67.81,42h0.33l2.46,0.1c1.81,0.07,3.68.14,5.51,0.27a37.66,37.66,0,0,1,10.82,2.05,1.65,1.65,0,0,1,1,1c0,2.52,0,5.09,0,7.57v2.27H67.81V42ZM35.21,54.69C42.57,47.24,52,43.18,64.06,42.26l0.34,0v13H34.68Zm80,25.92h-4.55l0-.27a17.36,17.36,0,0,0-7.74-12.44,16.73,16.73,0,0,0-11-2.75,17.44,17.44,0,0,0-15.6,15.19l0,0.27H44.31l0-.27A17.57,17.57,0,0,0,27.12,65.07H27.06A17.61,17.61,0,0,0,9.84,80.36l0,0.27H5.33V76.26l0.26,0C7,75.95,7.3,75,7.25,73.27c0-1,0-2,0-3.11,0-.48,0-1,0-1.48V68.36H9.09a1.79,1.79,0,0,0,2-1.58c0.06-1.26-1-1.62-2-1.7a1.06,1.06,0,0,1-.69-0.39l-0.28-.28L8.5,64.2l0.94-.63a18.91,18.91,0,0,1,2.16-1.33A32.54,32.54,0,0,1,23.69,59c3.93-.3,8.12-0.45,12.81-0.46,21.73,0,43.83,0,65.2,0A7.89,7.89,0,0,1,104,59c1,0.31,1.95.64,2.92,1,1.49,0.51,3,1,4.56,1.46s2,1.21,1.75,2.6c0,0.14,0,.27-0.05.44l-0.06.56-0.25,0a9.28,9.28,0,0,1-1.07.05,2.93,2.93,0,0,0-2,.45,1.71,1.71,0,0,0-.33,1.29c0.07,1.42.92,1.51,2.43,1.55,0.36,0,.73,0,1.08.06l0.28,0v0.28c0,0.49,0,1,0,1.47,0,1.09,0,2.22,0,3.33,0,1.42.24,2.41,1.68,2.65l0.26,0v4.38Z"/><path class="97d2b6fe-eaef-4ac7-b9a7-a1c930c866e5" d="M27.49,70.64h0A10.7,10.7,0,0,0,16.79,81.28a10.51,10.51,0,0,0,3.14,7.5,10.64,10.64,0,0,0,7.53,3.16h0A10.68,10.68,0,0,0,38.15,81.3,10.72,10.72,0,0,0,27.49,70.64Zm0,17.61H27.41a7,7,0,0,1-6.91-7A7,7,0,1,1,27.47,88.25Z"/><path class="97d2b6fe-eaef-4ac7-b9a7-a1c930c866e5" d="M93.31,70.64h0A10.7,10.7,0,0,0,82.62,81.28a10.51,10.51,0,0,0,3.14,7.5,10.64,10.64,0,0,0,7.53,3.16h0A10.68,10.68,0,0,0,104,81.3,10.72,10.72,0,0,0,93.31,70.64Zm0,17.61H93.23a7,7,0,0,1-6.91-7A7,7,0,1,1,93.29,88.25Z"/></svg>