<svg id="cf078674-1017-4745-9bab-35d33595f131" data-name="Capa 1" xmlns="http://www.w3.org/2000/svg" viewBox="0 0 153.2 100"><defs><style>.\32 bc2f45f-041c-4af7-bac6-edac30fb34a1{opacity:0.5;}.\31 4077912-f127-43c3-b7da-a58fd65ea7f9{font-size:21.94px;fill:#5d5d5d;font-family:Helvetica;}.\38 dd630dd-baf1-4135-a0c5-74cccb5a2158{fill:#afadae;}</style></defs><title>dobble queen-1</title><g class="2bc2f45f-041c-4af7-bac6-edac30fb34a1"><text class="14077912-f127-43c3-b7da-a58fd65ea7f9" transform="translate(3.96 88.89)">Dobble Queen</text></g><path class="8dd630dd-baf1-4135-a0c5-74cccb5a2158" d="M59.61,22.76l-3.93,0a1.38,1.38,0,0,0-1.54,1.61c0,1,0,2.08,0,3.13v2H65.06c0-1.88,0-3.72,0-5.55a1.29,1.29,0,0,0-1.5-1.23l-3.93,0M58.86,20l4.75,0A4.06,4.06,0,0,1,67,21.63a4.21,4.21,0,0,1,.87,2.71c0,1.73,0,3.46,0,5.22h2.73V28.76c0-3.66,0-7.34,0-11,0-1.42-.43-1.85-1.88-1.85H31.32c-1.44,0-1.9.46-1.9,1.93V29.54h2.7l0-.23c0-1.63,0-3.26,0-4.9,0-2.34,1.5-4.22,3.58-4.3q2.2-.08,4.4-0.08,2.46,0,4.92.08a3.83,3.83,0,0,1,3.47,3.28,17.79,17.79,0,0,1,.1,2.32c0,1.28,0,2.55,0,3.83h2.74c0-1.75,0-3.43,0-5.12A4.05,4.05,0,0,1,55.58,20c1.09,0,2.19,0,3.28,0M39.15,22.76H36.57a1.45,1.45,0,0,0-1.66,1.68c0,1.1,0,2.2,0,3.29v1.83H45.82c0-1.92.06-3.81,0-5.7a1.26,1.26,0,0,0-1.51-1.1H39.15M28.58,32.35a6.87,6.87,0,0,0-1,.07A3.9,3.9,0,0,0,24,36.09c-0.13,2.38,0,4.75,0,7.19H76c0-2.54,0-5,0-7.45a2.6,2.6,0,0,0-.35-1.14,4.26,4.26,0,0,0-4.18-2.34H28.58M24,46.14V57h2.67V53.44c0-1.41.45-1.87,1.88-1.87H71.46c1.4,0,1.83.43,1.84,1.81V57H76V46.14H24M23,59.8a1.87,1.87,0,0,1-1.79-1V35.52a7.06,7.06,0,0,1,2.07-3.89A12,12,0,0,1,25.93,30,1,1,0,0,0,26.69,29c0-3.7,0-7.4,0-11.08,0-3.09,1.63-4.71,4.71-4.71H68.67c3,0,4.63,1.62,4.64,4.59,0,3.75,0,7.5,0,11.25A0.8,0.8,0,0,0,74,30a6.57,6.57,0,0,1,4.76,6.11c0.1,3.19.06,6.37,0.06,9.56,0,4.07,0,8.14,0,12.22,0,1.53-.41,1.94-2,1.94H72.25a1.47,1.47,0,0,1-1.68-1.67c0-1.23,0-2.46,0-3.74H29.42V57.9c0,1.44-.44,1.89-1.86,1.89H24.91l-1.76,0H23"/><path class="8dd630dd-baf1-4135-a0c5-74cccb5a2158" d="M120,22.76l-3.94,0a1.38,1.38,0,0,0-1.54,1.61c0,1,0,2.08,0,3.13v2h10.93c0-1.88,0-3.72,0-5.55a1.28,1.28,0,0,0-1.5-1.23l-3.93,0M119.21,20L124,20a4.07,4.07,0,0,1,3.35,1.6,4.28,4.28,0,0,1,.85,2.71c0,1.73,0,3.46,0,5.22h2.74V17.76c0-1.42-.45-1.85-1.89-1.85H91.66c-1.46,0-1.91.46-1.91,1.93V29.54h2.7l0-.23c0-1.63,0-3.26,0-4.9,0-2.34,1.49-4.22,3.58-4.3q2.19-.08,4.4-0.08c1.64,0,3.28,0,4.91.08a3.83,3.83,0,0,1,3.47,3.28A17.23,17.23,0,0,1,109,25.7c0,1.28,0,2.55,0,3.83h2.74c0-1.75,0-3.43,0-5.12A4.06,4.06,0,0,1,115.93,20c1.09,0,2.18,0,3.27,0M99.48,22.76H96.91a1.45,1.45,0,0,0-1.66,1.68c0,1.1,0,2.2,0,3.29,0,0.6,0,1.2,0,1.83h10.92c0-1.92.06-3.81,0-5.7a1.26,1.26,0,0,0-1.51-1.1H99.48M88.92,32.35a6.73,6.73,0,0,0-1,.07,3.92,3.92,0,0,0-3.63,3.67c-0.13,2.38,0,4.75,0,7.19h52c0-2.54,0-5,0-7.45a2.64,2.64,0,0,0-.35-1.14,4.25,4.25,0,0,0-4.17-2.34H88.92m-4.58,13.8V57H87V53.44c0-1.41.47-1.87,1.89-1.87h42.9c1.4,0,1.83.43,1.84,1.81,0,1.19,0,2.39,0,3.6h2.71V46.14h-52m-1,13.65a1.87,1.87,0,0,1-1.8-1V35.52a7,7,0,0,1,2.08-3.89A12,12,0,0,1,86.26,30,1,1,0,0,0,87,29c0-3.7,0-7.4,0-11.08,0-3.09,1.64-4.71,4.71-4.71H129c3,0,4.63,1.62,4.63,4.59,0,3.75,0,7.5,0,11.25a0.81,0.81,0,0,0,.68.95,6.56,6.56,0,0,1,4.76,6.11c0.1,3.19.05,6.37,0.05,9.56q0,6.11,0,12.22c0,1.53-.41,1.94-2,1.94H132.6a1.48,1.48,0,0,1-1.69-1.67c0-1.23,0-2.46,0-3.74H89.76V57.9c0,1.44-.43,1.89-1.86,1.89H85.25l-1.77,0H83.34"/></svg>