<svg id="136ac4f6-f644-49be-b8da-16b577ede675" data-name="Capa 1" xmlns="http://www.w3.org/2000/svg" viewBox="0 0 100 100"><defs><style>.\38 ce37e63-9b42-45df-b83d-d0fa75961eec,.d4b0f669-e300-4990-a6e6-bf614a7c042b.\33 02800b3-40fd-4868-af4b-9146f93cfdc1{font-size:21.94px;font-family:Helvetica;}.\33 02800b3-40fd-4868-af4b-9146f93cfdc1,.d4b0f669-e300-4990-a6e6-bf614a7c042b{fill:#fff;}</style></defs><title>female-1</title><g class="8ce37e63-9b42-45df-b83d-d0fa75961eec"><text class="302800b3-40fd-4868-af4b-9146f93cfdc1" transform="translate(15.72 89.11)">Female</text></g><path class="d4b0f669-e300-4990-a6e6-bf614a7c042b" d="M53.06,4.74c1.3,0.28,2.63.44,3.89,0.85a18.94,18.94,0,0,1,10.24,8,25,25,0,0,1,4,14.44,25,25,0,0,1-3.67,12.79c-0.43.71-.94,1.37-1.42,2.05a1,1,0,0,1-1.41.41,35.63,35.63,0,0,0-6.94-2,0.51,0.51,0,0,0-.16,0V44.8c0.71,0.18,1.45.39,2.19,0.55,2.6,0.57,4.93,1.85,7.39,2.79a11.66,11.66,0,0,1,4.37,2.92,11.08,11.08,0,0,1,3.12,7.36c0.11,3,.08,5.95.09,8.93a1.11,1.11,0,0,1-1.32,1.33H45a2.14,2.14,0,0,1-.5,0,1,1,0,0,1-.82-1,0.91,0.91,0,0,1,.9-0.94c0.66,0,1.33,0,2.08,0L41.5,48.15c-0.38.15-.73,0.27-1.06,0.42A51.16,51.16,0,0,0,35,51.06a8.72,8.72,0,0,0-4.27,7.3c-0.16,2.63-.07,5.28-0.08,7.93a2.59,2.59,0,0,0,0,.34h5.72c0-.26,0-0.48,0-0.7,0-2.21,0-4.41,0-6.62a1,1,0,0,1,2-.3,3,3,0,0,1,0,.62q0,3.15,0,6.31v0.73h2.8a4.24,4.24,0,0,1,.69,0A1,1,0,0,1,42,68.63a2.8,2.8,0,0,1-.68,0H30.08c-1.13,0-1.47-.32-1.46-1.44,0-2.93-.07-5.87.11-8.8a11.22,11.22,0,0,1,7-10.09c1.85-.85,3.73-1.64,5.64-2.34,1.3-.47,2.69-0.72,4-1.06L46,44.79v-3.4A31.14,31.14,0,0,0,39.74,43c-1.64.66-1.66,0.67-2.69-.79a25.14,25.14,0,0,1-4.39-18,23.86,23.86,0,0,1,4-10.88A19,19,0,0,1,47.81,5.25c1-.25,2-0.35,3-0.51h2.25Zm-9.47,35a0.3,0.3,0,0,0,0-.09,10.81,10.81,0,0,1-3.15-5.9,0.73,0.73,0,0,0-.51-0.4A4.78,4.78,0,0,1,39.81,24a0.69,0.69,0,0,0,.46-0.24,1.51,1.51,0,0,1,1.32-1,24.13,24.13,0,0,0,9.35-5.33,1.1,1.1,0,0,1,1.82.07,26.72,26.72,0,0,0,2.64,2.36,18.64,18.64,0,0,0,6.92,3,3.27,3.27,0,0,1,1,.66,2,2,0,0,0,.58.44,4.81,4.81,0,0,1,3.8,4.71,4.75,4.75,0,0,1-3.92,4.66,0.6,0.6,0,0,0-.58.59,9.63,9.63,0,0,1-1.75,4.15c-0.42.58-.91,1.12-1.37,1.68l4.83,1.42a20.88,20.88,0,0,0,2.7-5,23.94,23.94,0,0,0,.09-17.08A18.75,18.75,0,0,0,59.1,8.69a14.32,14.32,0,0,0-14.21-.18c-4.65,2.42-7.53,6.39-9.18,11.28a23.9,23.9,0,0,0-.26,14.67,20.87,20.87,0,0,0,3.3,6.69Zm8-20.2c-0.43.34-.94,0.77-1.48,1.17a26.83,26.83,0,0,1-7.35,3.75,0.58,0.58,0,0,0-.51.64c0,2.41,0,4.83,0,7.24A8.41,8.41,0,0,0,47.88,40a13.87,13.87,0,0,0,5.43.48,8.39,8.39,0,0,0,8-7.92c0.09-2.45,0-4.91.06-7.36a0.55,0.55,0,0,0-.5-0.64,17.56,17.56,0,0,1-5.06-2.06C54.39,21.59,53.06,20.56,51.61,19.54Zm13.32,47.1c0-.91,0-1.76,0-2.61,0-1.56,0-3.12,0-4.68a1,1,0,0,1,1.45-1.05,1.12,1.12,0,0,1,.56,1.16c0,2.16,0,4.33,0,6.49,0,0.22,0,.44,0,0.68h5.73a3.09,3.09,0,0,0,0-.35c0-2.62.07-5.25-.08-7.86A8.64,8.64,0,0,0,68.4,51.1a58.67,58.67,0,0,0-6.17-2.79,0.39,0.39,0,0,0-.16,0L57,66.64h8Zm-6-14.46a17.27,17.27,0,0,1-14.11.06,3.25,3.25,0,0,0,0,.37c1.27,4.52,2.55,9,3.8,13.56a0.58,0.58,0,0,0,.69.5c1.62,0,3.25,0,4.87,0A0.71,0.71,0,0,0,55,66c0.9-3.29,1.83-6.56,2.74-9.84C58.15,54.91,58.51,53.61,58.91,52.18ZM43.42,47.5a11.47,11.47,0,0,0,.43,1.5,1.68,1.68,0,0,0,.65.81,15,15,0,0,0,14.84-.13,0.72,0.72,0,0,0,.34-0.33c0.19-.58.34-1.18,0.52-1.8l-3.33-.85c-1.25-.32-1.35-0.44-1.35-1.75,0-.91,0-1.81,0-2.76a21.23,21.23,0,0,1-7.42,0c0,1,0,2,0,3a1.19,1.19,0,0,1-1.15,1.47Zm20-16.19a2.74,2.74,0,0,0,2.24-2.86A2.61,2.61,0,0,0,63.42,26v5.31ZM40.22,26A2.67,2.67,0,0,0,38,28.61a2.7,2.7,0,0,0,2.25,2.69V26Z"/></svg>