<svg id="5dfd9e99-e8b1-4c09-a435-4a8d7f265ae7" data-name="Capa 1" xmlns="http://www.w3.org/2000/svg" viewBox="0 0 120 120"><defs><style>.c41b5f99-d751-4b96-b9f6-13f506036a27{fill:#fff;}</style></defs><title>flight from the meeting</title><path class="c41b5f99-d751-4b96-b9f6-13f506036a27" d="M112.91,45.49c-0.8,3.32-3.07,5.22-6,6.63Q70.7,69.3,34.57,86.59A9.28,9.28,0,0,1,24,85.45c-4.92-3.84-9.94-7.56-14.88-11.38a3.42,3.42,0,0,1-1.19-1.7,1.85,1.85,0,0,1,1.18-2.17c2.51-1.19,5-2.42,7.57-3.47a3,3,0,0,1,2.21.22c2.64,1.32,5.2,2.78,7.81,4.15a1.5,1.5,0,0,0,1.19.1c5.39-2.93,10.76-5.9,16.13-8.87a2.07,2.07,0,0,0,.29-0.26c-0.3-.24-0.58-0.48-0.87-0.7L25.36,47.61c-0.25-.19-0.5-0.36-0.73-0.57A2.07,2.07,0,0,1,25,43.47C28.69,41.7,32.4,40,36.1,38.29a2.55,2.55,0,0,1,2.43.34c7.84,4.24,15.7,8.45,23.53,12.71a1.83,1.83,0,0,0,2,0q11.82-6.57,23.69-13.07a30.37,30.37,0,0,1,12.33-4c3.94-.3,7.63.49,10.13,3.8,1.18,1.56,1.79,3.57,2.66,5.37v2.06Zm-9.14-6.59V38.67c-0.44-.07-0.87-0.17-1.31-0.2-4.41-.28-8.4,1.18-12.17,3.21C83,45.58,75.86,49.6,68.65,53.58c-0.35.19-.7,0.41-1.14,0.67l4.71,2.55a2.13,2.13,0,0,1-.11,3.95L55.25,68.6a2.4,2.4,0,0,1-2.69-.31c-1.22-1-2.48-1.84-3.67-2.82a1.23,1.23,0,0,0-1.63-.12C41.18,68.74,35.07,72.07,29,75.46a2.87,2.87,0,0,1-3.09,0c-2.54-1.43-5.12-2.79-7.69-4.16a1.49,1.49,0,0,0-1-.22c-1,.4-2,0.92-3.13,1.44l1.08,0.85c3.85,2.93,7.73,5.82,11.54,8.8a5.2,5.2,0,0,0,6,.64Q63.94,67.88,95.23,53c3.74-1.78,7.51-3.52,11.19-5.44,2.62-1.37,2.93-3.29,1.21-5.85l-0.9.42c-2.76,1.38-5.51,2.77-8.28,4.13a2.11,2.11,0,0,1-3.23-1.49,2.25,2.25,0,0,1,1.5-2.34C99.06,41.24,101.42,40.07,103.77,38.89ZM56.39,63.4l-1.17-.88c-1.38-1-2.78-2-4.14-3.06a2,2,0,0,1-.86-2.26,1.79,1.79,0,0,1,1.63-1.5,3.53,3.53,0,0,1,2,.61C56,57.8,58,59.39,60.15,60.92a1.24,1.24,0,0,0,.88.32c1.86-.82,3.7-1.7,5.57-2.58a1.27,1.27,0,0,0-.16-0.18Q51.92,50.63,37.39,42.8a1,1,0,0,0-.76-0.11c-2.2,1-4.38,2-6.67,3.11,0.41,0.33.7,0.57,1,.79,7.4,5.63,14.82,11.24,22.19,16.91,0.93,0.71,1.67.92,2.62,0.24A7,7,0,0,1,56.39,63.4Z"/><path class="c41b5f99-d751-4b96-b9f6-13f506036a27" d="M7.42,59.08a3.4,3.4,0,0,1,2-1.74c4.2-1.68,8.38-3.4,12.57-5.1a4.44,4.44,0,0,1,1.28-.36,1.93,1.93,0,0,1,2.07,1.35,1.9,1.9,0,0,1-.65,2.3,4.17,4.17,0,0,1-1.08.58L10.89,61.31c-1.73.7-2.54,0.42-3.47-1.19v-1Z"/><path class="c41b5f99-d751-4b96-b9f6-13f506036a27" d="M49.45,99.47H84.58c1.54,0,2.54.87,2.52,2.13s-1,2-2.46,2.07H15a8.15,8.15,0,0,1-1.43-.09,2,2,0,0,1-.25-3.92,5.42,5.42,0,0,1,1.52-.18H49.45Z"/><path class="c41b5f99-d751-4b96-b9f6-13f506036a27" d="M99.38,103.68c-1.13,0-2.27,0-3.4,0-1.51,0-2.43-.85-2.43-2.09A2.17,2.17,0,0,1,96,99.48q3.45,0,6.9,0a2.17,2.17,0,0,1,2.38,2c0,1.23-.9,2.07-2.38,2.15h-3.5Z"/></svg>