<svg id="fd11cd86-5019-4df5-9ddd-0e7b2cfc69e3" data-name="Capa 1" xmlns="http://www.w3.org/2000/svg" viewBox="0 0 120 120"><defs><style>.af16f3da-0eb5-4bd3-8f71-180ef0596fc3{fill:#fff;}</style></defs><title>flight to the meeting </title><path class="af16f3da-0eb5-4bd3-8f71-180ef0596fc3" d="M111.48,74.46c-2.54,2.29-5.48,2.56-8.73,2Q63.2,70.17,23.64,64A9.28,9.28,0,0,1,15.59,57c-1.88-6-3.91-11.86-5.82-17.81a3.42,3.42,0,0,1,0-2.07A1.85,1.85,0,0,1,12,36c2.74,0.44,5.49.84,8.2,1.42a3,3,0,0,1,1.7,1.44c1.43,2.58,2.71,5.24,4.09,7.84a1.5,1.5,0,0,0,.92.76c6.1,0.64,12.21,1.23,18.32,1.83a2.07,2.07,0,0,0,.39-0.05c-0.11-.37-0.21-0.72-0.32-1.07L38.13,26.61c-0.1-.29-0.21-0.58-0.28-0.88A2.07,2.07,0,0,1,40.2,23c4,0.62,8,1.33,12.07,2a2.55,2.55,0,0,1,1.81,1.66c4.06,7.93,8.15,15.85,12.19,23.8A1.83,1.83,0,0,0,68,51.6q13.46,1.28,26.92,2.65A30.37,30.37,0,0,1,107.3,58c3.42,2,6,4.72,6.2,8.87,0.09,2-.55,4-0.85,5.93Zm-3.8-10.61,0.12-.19c-0.32-.3-0.62-0.63-1-0.91C103.36,60,99.25,59,95,58.5c-8.18-.89-16.37-1.64-24.56-2.45C70,56,69.63,56,69.12,56c0.85,1.66,1.63,3.22,2.43,4.77a2.13,2.13,0,0,1-2.33,3.19L50.87,60.84a2.4,2.4,0,0,1-2-1.78c-0.46-1.47-1-2.92-1.43-4.41a1.23,1.23,0,0,0-1.27-1c-6.93-.65-13.85-1.37-20.78-2a2.87,2.87,0,0,1-2.56-1.73c-1.29-2.61-2.63-5.2-4-7.78a1.49,1.49,0,0,0-.72-0.77C17,41.08,15.9,41,14.69,40.75c0.17,0.53.28,0.93,0.41,1.31,1.51,4.59,3.08,9.17,4.53,13.79a5.2,5.2,0,0,0,4.58,3.93q34.23,5.38,68.44,10.84c4.09,0.65,8.18,1.36,12.3,1.86,2.93,0.35,4.28-1,4.31-4.14l-1-.16c-3.05-.43-6.11-0.84-9.16-1.29a2.11,2.11,0,0,1-1.82-3.06,2.25,2.25,0,0,1,2.56-1.08C102.47,63.11,105.08,63.49,107.69,63.85ZM54.76,57.2l-0.47-1.39c-0.56-1.62-1.14-3.24-1.68-4.87a2,2,0,0,1,.57-2.35,1.79,1.79,0,0,1,2.19-.31,3.53,3.53,0,0,1,1.28,1.62c0.93,2.44,1.73,4.92,2.61,7.37a1.24,1.24,0,0,0,.54.76c2,0.38,4,.69,6.05,1a1.27,1.27,0,0,0,0-.24Q58.31,44.15,50.77,29.46a1,1,0,0,0-.56-0.52c-2.38-.42-4.76-0.81-7.26-1.22,0.15,0.5.25,0.86,0.37,1.22,2.91,8.83,5.85,17.66,8.71,26.5,0.36,1.11.86,1.71,2,1.68A7,7,0,0,1,54.76,57.2Z"/><path class="af16f3da-0eb5-4bd3-8f71-180ef0596fc3" d="M16.85,25.91a3.4,3.4,0,0,1,2.66-.28c4.41,1,8.83,1.94,13.25,2.92A4.44,4.44,0,0,1,34,29,1.93,1.93,0,0,1,35,31.26a1.9,1.9,0,0,1-1.84,1.52,4.17,4.17,0,0,1-1.22-.13L18.45,29.7c-1.82-.4-2.33-1.1-2.19-2.95Z"/><path class="af16f3da-0eb5-4bd3-8f71-180ef0596fc3" d="M48.54,95.84H83.66c1.54,0,2.54.87,2.52,2.13s-1,2-2.46,2.07H14.1a8.15,8.15,0,0,1-1.43-.09A2,2,0,0,1,12.41,96a5.42,5.42,0,0,1,1.52-.18H48.54Z"/><path class="af16f3da-0eb5-4bd3-8f71-180ef0596fc3" d="M98.46,100c-1.13,0-2.27,0-3.4,0-1.51,0-2.43-.85-2.43-2.09a2.17,2.17,0,0,1,2.43-2.11q3.45,0,6.9,0a2.17,2.17,0,0,1,2.38,2c0,1.23-.9,2.07-2.38,2.15h-3.5Z"/></svg>