<svg id="0f6422dd-5748-402c-bdf2-6ec494f3f13b" data-name="Capa 1" xmlns="http://www.w3.org/2000/svg" viewBox="0 0 120 120"><defs><style>.d50dac27-e265-4d67-845b-463df924d6ce{fill:#fff;}</style></defs><title>functions </title><path class="d50dac27-e265-4d67-845b-463df924d6ce" d="M75.78,19.5H87.41a2.19,2.19,0,0,1,1,2.09c-0.06,1.8,0,3.6,0,5.5H89.5c2.29,0,4.58-.06,6.86.06a8.49,8.49,0,0,1,8.25,8.69c-0.13,8.54,0,17.09-.06,25.63a2.14,2.14,0,0,0,1,2A30.05,30.05,0,0,1,117,80.88c0.43,1.81.63,3.67,0.93,5.51v2.1a9.1,9.1,0,0,0-.17,1,26.93,26.93,0,0,1-2.94,10.94,29.2,29.2,0,0,1-20.33,15.9c-1.32.3-2.67,0.49-4,.72H86.26c-1.5-.24-3-0.4-4.49-0.73a28.94,28.94,0,0,1-16.11-9.66,2.1,2.1,0,0,0-1.78-.81q-17,0-34,0a17.23,17.23,0,0,1-2-.07,7.85,7.85,0,0,1-6.46-4.12,20.21,20.21,0,0,1-1.09-3.29V34.56a4.61,4.61,0,0,0,.17-0.62,7.28,7.28,0,0,1,1.64-3.77,8.63,8.63,0,0,1,7.05-3.07h6.3c0-1.71.06-3.35,0-5a2.22,2.22,0,0,1,1.63-2.61H48.72c1.56,0.41,2,1.44,1.91,3s0,3,0,4.54H74.34c0-1.73,0-3.4,0-5.07C74.31,20.83,74.58,19.9,75.78,19.5ZM24.69,53.06v1.12q0,9,0,18,0,12.67,0,25.35a3.64,3.64,0,0,0,3.51,4,11.39,11.39,0,0,0,1.42.08H62c-5.55-12.43-4.66-24.09,4.63-34.13s20.85-11.82,33.58-7.14V53.06H24.69Zm88.64,34.39A25.37,25.37,0,1,0,88,112.81,25.35,25.35,0,0,0,113.33,87.45ZM100.25,48.64v-1q0-5.91,0-11.81c0-2.57-1.34-4.14-3.93-4.31-2.4-.16-4.82-0.08-7.23-0.1a5.75,5.75,0,0,0-.72.09c0,1.43,0,2.82,0,4.21a1.94,1.94,0,0,1-2.26,2.17H77.33c-2.21,0-3-.76-3-3,0-1.13,0-2.27,0-3.43H50.61c0,1.09,0,2.11,0,3.12,0,2.21-1.05,3.27-3.26,3.28H38.68c-2.37,0-3.19-.82-3.19-3.22,0-1.07,0-2.13,0-3.26h-1c-2,0-4-.06-6,0.08-2.57.17-3.78,1.58-3.78,4.18q0,6,0,12.1v0.9h75.56Zm-54-15.11V23.93H39.84v9.59H46.2Zm32.5,0H84v-9.6H78.7v9.6Z"/><path class="d50dac27-e265-4d67-845b-463df924d6ce" d="M88.37,87.54h1.12c2.82,0,5.65,0,8.47,0a2.19,2.19,0,0,1,2.39,2.08,2.16,2.16,0,0,1-2.24,2.22c-3.81.06-7.62,0.07-11.42,0A2.52,2.52,0,0,1,84.06,89q0-6.9,0-13.8a3.79,3.79,0,0,1,.23-1.49,2.11,2.11,0,0,1,3.94.26,4.32,4.32,0,0,1,.13,1.22q0,5.62,0,11.23v1.12Z"/></svg>