<svg id="37bb58c3-88d1-4f65-be3c-d8922849d8c6" data-name="Capa 1" xmlns="http://www.w3.org/2000/svg" viewBox="0 0 120 120"><defs><style>.\38 6147726-b631-42e3-9cb7-25b6ad8041e3{fill:#2e7bb1;}</style></defs><title>hotel</title><path class="86147726-b631-42e3-9cb7-25b6ad8041e3" d="M10.61,113.1v-3.32H17.2V53.1c-0.51,0-1,0-1.41,0a1.72,1.72,0,0,1-1.84-1.84q0-4,0-8a1.7,1.7,0,0,1,1.85-1.83c0.47,0,.94,0,1.47,0,0-2.16,0-4.17,0-6.19,0-1.52.6-2.12,2.13-2.15,0.93,0,1.86,0,2.9,0V31.79c0-5.47,0-10.93,0-16.4a2.23,2.23,0,0,1,1.23-2.32H97.74A2.27,2.27,0,0,1,99,15.41c0,5.5,0,11,0,16.5v1.17h1.35c3.64,0,3.69,0,3.69,3.73v4.6c0.56,0,1,0,1.4,0a1.73,1.73,0,0,1,1.92,1.86q0,4,0,8a1.7,1.7,0,0,1-1.78,1.81c-0.48,0-1,0-1.48,0v56.69h6.54v3.32h-100Zm10.07-3.38h79.89V53.14H20.68v56.58Zm5-76.72H95.54V16.47H25.67V33ZM17.32,49.71h86.59V44.79H17.32v4.92ZM100.6,36.49H20.67v4.85H100.6V36.49Z"/><path class="86147726-b631-42e3-9cb7-25b6ad8041e3" d="M25.63,68c0-2.6,0-5.21,0-7.81,0-1.54.58-2.13,2.12-2.14q5.37,0,10.74,0c1.52,0,2.12.62,2.12,2.15q0,7.86,0,15.72c0,1.53-.62,2.14-2.14,2.14q-5.37,0-10.74,0c-1.52,0-2.1-.62-2.11-2.16,0-2.64,0-5.27,0-7.91M29,74.68h8.2V61.48H29v13.2Z"/><path class="86147726-b631-42e3-9cb7-25b6ad8041e3" d="M25.63,94.78c0-2.64,0-5.27,0-7.91,0-1.54.58-2.1,2.14-2.1H38.51c1.48,0,2.1.58,2.1,2.06q0,7.91,0,15.82c0,1.54-.59,2.09-2.16,2.1q-5.32,0-10.64,0c-1.66,0-2.18-.54-2.19-2.25q0-3.86,0-7.72m11.57-6.64H29v13.22h8.18V88.14Z"/><path class="86147726-b631-42e3-9cb7-25b6ad8041e3" d="M54,68c0-2.57,0-5.14,0-7.72,0-1.6.57-2.17,2.18-2.18q5.32,0,10.64,0c1.56,0,2.17.63,2.17,2.22q0,7.81,0,15.63c0,1.57-.63,2.18-2.21,2.18q-5.32,0-10.64,0C54.56,78.09,54,77.5,54,76c0-2.67,0-5.34,0-8m3.39,6.73h8.21V61.47H57.35V74.7Z"/><path class="86147726-b631-42e3-9cb7-25b6ad8041e3" d="M95.61,68.07c0,2.6,0,5.21,0,7.81,0,1.65-.57,2.22-2.24,2.22H82.82c-1.58,0-2.2-.62-2.21-2.18q0-7.81,0-15.62c0-1.59.61-2.21,2.17-2.22q5.32,0,10.64,0c1.61,0,2.18.59,2.19,2.18,0,2.6,0,5.21,0,7.81M92.25,61.5H84V74.7h8.24V61.5Z"/><path class="86147726-b631-42e3-9cb7-25b6ad8041e3" d="M95.61,94.84c0,2.6,0,5.21,0,7.81,0,1.5-.57,2.09-2,2.09q-5.47,0-10.94,0a1.73,1.73,0,0,1-2-2q0-8,0-16a1.76,1.76,0,0,1,2.07-2H93.52c1.49,0,2.08.59,2.08,2.06,0,2.67,0,5.34,0,8m-3.41-6.7H84v13.22h8.2V88.14Z"/><path class="86147726-b631-42e3-9cb7-25b6ad8041e3" d="M54,94.78c0-2.6,0-5.21,0-7.81,0-1.63.55-2.2,2.14-2.2H66.85c1.47,0,2.1.6,2.11,2.06q0,7.91,0,15.82c0,1.5-.61,2.09-2.07,2.09q-5.42,0-10.84,0c-1.54,0-2.08-.57-2.09-2.15,0-2.6,0-5.21,0-7.81m11.62-6.62H57.35v13.18h8.23V88.16Z"/><path class="86147726-b631-42e3-9cb7-25b6ad8041e3" d="M47.48,24.35a5.49,5.49,0,1,1,11,0,5.49,5.49,0,1,1-11,0m8.87,0c0-2.41-1.26-3.87-3.39-3.87S49.54,22,49.51,24.27s1.32,3.86,3.43,3.86,3.39-1.39,3.41-3.75"/><polygon class="86147726-b631-42e3-9cb7-25b6ad8041e3" points="38.72 25.07 38.72 29.67 36.79 29.67 36.79 18.99 38.72 18.99 38.72 23.53 43.8 23.53 43.8 18.96 45.79 18.96 45.79 29.66 43.86 29.66 43.86 25.07 38.72 25.07"/><polygon class="86147726-b631-42e3-9cb7-25b6ad8041e3" points="68.43 29.65 68.43 18.99 75.19 18.99 75.19 20.47 70.46 20.47 70.46 23.48 74.14 23.48 74.14 25.04 70.46 25.04 70.46 28.07 75.16 28.07 75.16 29.65 68.43 29.65"/><polygon class="86147726-b631-42e3-9cb7-25b6ad8041e3" points="63.87 29.68 61.85 29.68 61.85 20.56 58.59 20.56 58.59 18.98 67.02 18.98 67.02 20.51 63.87 20.51 63.87 29.68"/><polygon class="86147726-b631-42e3-9cb7-25b6ad8041e3" points="83.27 28.1 83.27 29.68 77.06 29.68 77.06 18.98 78.97 18.98 78.97 28.1 83.27 28.1"/></svg>