<svg id="93a489ec-d811-44b9-b970-8d21126fb7a8" data-name="Capa 1" xmlns="http://www.w3.org/2000/svg" viewBox="0 0 100 100"><defs><style>.d4562a64-3a5d-4118-af39-86b3f8dc7c81{opacity:0.5;}.e6d73a5f-6168-4c9f-99a7-ddfa726e7c65{font-size:21.94px;font-family:Helvetica;}.e6d73a5f-6168-4c9f-99a7-ddfa726e7c65,.f859960e-e773-4069-9415-57a5512661a6{fill:#5d5d5d;}</style></defs><title>king svg</title><g class="d4562a64-3a5d-4118-af39-86b3f8dc7c81"><text class="e6d73a5f-6168-4c9f-99a7-ddfa726e7c65" transform="translate(24.85 88.55)">King</text></g><g class="d4562a64-3a5d-4118-af39-86b3f8dc7c81"><path class="f859960e-e773-4069-9415-57a5512661a6" d="M49.58,22.43l-4.87,0c-1.31,0-1.89.52-1.9,1.61s0,2.08,0,3.13v2H56.32c0-1.88,0-3.72,0-5.55,0-.78-0.74-1.23-1.86-1.23l-4.87,0m-0.92-2.76,5.88,0a5.55,5.55,0,0,1,4.14,1.6A3.73,3.73,0,0,1,59.73,24c0,1.73,0,3.46,0,5.22h3.39V17.43c0-1.42-.55-1.85-2.33-1.85H14.59c-1.8,0-2.36.46-2.36,1.93,0,3.64,0,7.28,0,10.92V29.2h3.32L15.62,29c0-1.63,0-3.26,0-4.9a4.39,4.39,0,0,1,4.44-4.3q2.72-.08,5.44-0.08,3,0,6.07.08A4.46,4.46,0,0,1,35.88,23,15.75,15.75,0,0,1,36,25.37c0,1.28,0,2.55,0,3.83H39.4c0-1.75,0-3.43,0-5.12,0-2.63,2-4.32,5.2-4.38,1.35,0,2.7,0,4.06,0m-24.4,2.76H21.09c-1.43,0-2,.51-2.06,1.68s0,2.2,0,3.29v1.83h13.5c0-1.92.07-3.81,0-5.7,0-.84-0.92-1.1-1.87-1.1H24.26M11.2,32a10.39,10.39,0,0,0-1.18.07c-2.48.25-4.35,1.67-4.48,3.67-0.16,2.38,0,4.75,0,7.19H69.84c0-2.54,0-5,0-7.45a2.35,2.35,0,0,0-.43-1.14C68.31,32.64,66.5,32,64.22,32h-53M5.54,45.81V56.66H8.85c0-1.22,0-2.39,0-3.56,0-1.41.57-1.87,2.32-1.87H64.24c1.73,0,2.26.43,2.27,1.81,0,1.19,0,2.39,0,3.6h3.34V45.81H5.54M4.29,59.46a2.48,2.48,0,0,1-2.23-1V35.19A6.8,6.8,0,0,1,4.64,31.3a15.91,15.91,0,0,1,3.28-1.6,1,1,0,0,0,.95-1.07c0-3.7,0-7.4,0-11.08,0-3.09,2-4.71,5.83-4.71h46.1c3.71,0,5.73,1.62,5.73,4.59,0,3.75,0,7.5,0,11.25a0.85,0.85,0,0,0,.85.95c3.4,0.84,5.77,3.22,5.88,6.11,0.12,3.19.06,6.37,0.07,9.56V57.51c0,1.53-.52,1.94-2.42,1.94H65.22c-1.42,0-2.07-.52-2.09-1.67s0-2.46,0-3.74H12.24c0,1.18,0,2.36,0,3.53,0,1.44-.54,1.89-2.29,1.89H6.66l-2.19,0H4.29"/><path class="f859960e-e773-4069-9415-57a5512661a6" d="M78.85,40.19H95.22V32.08H78.85v8.11Zm-0.06,11H76.05V50.3c0-6.31,0-12.63,0-19,0-1.68.4-2.08,2.08-2.08H96c1.63,0,2,.42,2,2.05V51.19H95.3V43.07H78.8V51.2"/><rect class="f859960e-e773-4069-9415-57a5512661a6" x="84.37" y="34.81" width="5.37" height="2.64"/></g></svg>