<svg id="02d8f0eb-c00e-4f9d-a7de-815e448f3080" data-name="Capa 1" xmlns="http://www.w3.org/2000/svg" viewBox="0 0 100 100"><defs><style>.\31 6c3223b-aedf-4730-8a78-58fd79083134,.\35 f367f6b-a168-4371-abd0-9f7cf0363dc7.\30 e34338a-e574-49a4-b5fc-f5820056e4bd{font-size:21.94px;font-family:Helvetica;}.\30 e34338a-e574-49a4-b5fc-f5820056e4bd,.\31 6c3223b-aedf-4730-8a78-58fd79083134{fill:#fff;}</style></defs><title>male-1</title><g class="5f367f6b-a168-4371-abd0-9f7cf0363dc7"><text class="0e34338a-e574-49a4-b5fc-f5820056e4bd" transform="translate(26.47 89.89)">Male</text></g><path class="16c3223b-aedf-4730-8a78-58fd79083134" d="M52.77,5A30,30,0,0,1,56,5.7a14.1,14.1,0,0,1,9.77,13.58c0,1.85,0,3.7,0,5.56a1.55,1.55,0,0,0,.28.84,4.8,4.8,0,0,1-2.84,7.56,0.82,0.82,0,0,0-.77.76,10.29,10.29,0,0,1-5.17,7.14,1,1,0,0,0-.51.88,1.76,1.76,0,0,0,1,1.79c2.8,2.11,6.08,3.22,9.23,4.62A11.05,11.05,0,0,1,74,58c0.29,3.28.13,6.61,0.15,9.92a1,1,0,0,1-1,1,4.65,4.65,0,0,1-.5,0H44.29a3.49,3.49,0,0,1-.56,0,1,1,0,0,1-.88-1,1,1,0,0,1,1-.94c0.64,0,1.28,0,2,0L40.61,48.14c-2.17,1-4.36,1.78-6.35,2.91a8.58,8.58,0,0,0-4.44,7.19c-0.19,2.84,0,5.7,0,8.6h5.7c0-.2,0-0.42,0-0.64q0-3.12,0-6.24c0-.17,0-0.33,0-0.5a1,1,0,1,1,2,0c0,1.89,0,3.79,0,5.68,0,0.56,0,1.11,0,1.74h2.54a4.67,4.67,0,0,1,.75,0,0.92,0.92,0,0,1,.82.88,0.91,0.91,0,0,1-.65,1,2.31,2.31,0,0,1-.74.09H29.09c-1.1,0-1.42-.32-1.42-1.4q0-3.84,0-7.68a12.06,12.06,0,0,1,3.48-8.93,11.42,11.42,0,0,1,3.71-2.49c2-.83,4-1.56,6-2.52a39.83,39.83,0,0,0,4.25-2.72,1.64,1.64,0,0,0-.21-2,10,10,0,0,1-5-6.2A2.56,2.56,0,0,0,38,32.93a4.74,4.74,0,0,1-2-7.27,1.83,1.83,0,0,0,.35-1c0-2.08,0-4.16.05-6.24A14.11,14.11,0,0,1,48.11,5.2C48.5,5.14,48.89,5,49.27,5h3.5ZM55.22,19.2a17.41,17.41,0,0,1-6.33,4,28.11,28.11,0,0,1-7.47,1.6c0,2.55-.09,5,0,7.53a8.32,8.32,0,0,0,4.69,7.29,11.2,11.2,0,0,0,5.9.93,8.57,8.57,0,0,0,8.61-8.91c0-2.18,0-4.37,0-6.55a0.65,0.65,0,0,0-.48-0.73,6.31,6.31,0,0,1-2.71-1.93C56.66,21.38,56,20.29,55.22,19.2Zm-16.84,4.9a2.65,2.65,0,0,0,1-.57,1.34,1.34,0,0,1,1.22-.8c1.61-.2,3.23-0.32,4.81-0.67A15.61,15.61,0,0,0,54.46,17a1.49,1.49,0,0,1,1.44-.89c0.76,0.15.78,0.83,1,1.38,0.93,2.49,2.26,4.59,5,5.36a1,1,0,0,1,.6.49,1,1,0,0,0,1.14.62c0-1.93.12-3.83,0-5.71a11.7,11.7,0,0,0-6.51-9.84,13.54,13.54,0,0,0-7.7-1.3,12.22,12.22,0,0,0-10.55,8.7C38.13,18.45,38.53,21.17,38.37,24.09ZM64.25,66.87c0-.31,0-0.56,0-0.81,0-2.21,0-4.41,0-6.62a1,1,0,1,1,2,0c0,0.17,0,.33,0,0.5q0,3.12,0,6.24v0.68h5.8c0-.14,0-0.24,0-0.34,0-2.66,0-5.33-.11-8A9.08,9.08,0,0,0,68.86,52c-2.13-1.92-4.93-2.47-7.45-3.73L56.21,66.87h8ZM50.54,49.31l4.06-3.67a0.5,0.5,0,0,0,.15-0.32c0-1,0-2.06,0-3-1.3.08-2.52,0.21-3.74,0.21s-2.47-.13-3.74-0.21c0,1.05,0,2.15,0,3.25a0.72,0.72,0,0,0,.19.43C48.56,47.18,49.65,48.36,50.54,49.31Zm1.67,8.62c-0.72,0-1.38,0-2,0a0.59,0.59,0,0,0-.39.4c-0.22,1.16-.4,2.33-0.59,3.5-0.27,1.66-.53,3.31-0.8,5h5.25Zm4.07-4.38,3.05-6.28L57,45.71a8.22,8.22,0,0,1-.77,1.2c-1.2,1.29-2.44,2.55-3.7,3.86ZM42.55,47.28l3.06,6.28,3.65-2.68c-1-1.1-2-2.21-3.05-3.25a2.25,2.25,0,0,1-1-2,0.39,0.39,0,0,0-.12-0.09ZM55.06,62.84l0.16,0L57.13,56c-1,.27-1.5-0.6-2.32-1a6.54,6.54,0,0,0-.61,2.18C54.37,59.13,54.76,61,55.06,62.84Zm-8-7.76L45,56.32l1.84,6.56c0.42-1.86.73-3.68,1-5.51a1.24,1.24,0,0,0-.08-0.6C47.58,56.22,47.33,55.67,47.09,55.08Zm6.09-1.28-2.23-1.64-2.2,1.62c0.27,0.65.5,1.26,0.78,1.83a0.63,0.63,0,0,0,.45.3c0.79,0,1.58,0,2.38,0Zm9.53-27.93v5.37A2.7,2.7,0,0,0,65,28.61,2.74,2.74,0,0,0,62.71,25.86ZM39.34,31.23V25.86a2.73,2.73,0,0,0-2.28,2.72A2.68,2.68,0,0,0,39.34,31.23Z"/></svg>