<svg id="3585b920-c493-4d6e-ac34-7c5ef5c6a25d" data-name="Capa 1" xmlns="http://www.w3.org/2000/svg" viewBox="0 0 120 120"><defs><style>.\34 03e987a-14a9-45f2-b26b-9263cc46df65{fill:none;}.\37 7937d97-2d40-48df-8523-dc0c67ab1adc{fill:#fff;}</style></defs><title>meetings confirmation</title><path class="403e987a-14a9-45f2-b26b-9263cc46df65" d="M85.38,16.71H85.32L85.54,17A1,1,0,0,1,85.38,16.71Z"/><path class="77937d97-2d40-48df-8523-dc0c67ab1adc" d="M83.18,12.65c-30.56,0-39.1.13-69.67,0.13L12,14.26V106l2.31,2.31,76.76-.58a1.52,1.52,0,0,0,1-.3,2.13,2.13,0,0,0,.92-2.22,1.79,1.79,0,0,0-1.61-1.54,7.24,7.24,0,0,0-1.2-.06H15.95V16.71H79.68V15a2.14,2.14,0,0,1,2.12-2.15l3.53,3.83h0.06a1,1,0,0,0,.17.25l19.81,21.47c1.56,0-.06.14-0.83,0.15h-1.71c0,26.94,0,38.15,0,66.16,0,1.31-.21,2.75,2.32,2.75a1.4,1.4,0,0,0,1.56-1.53h0c0-30.56.06-37.23,0.06-67.8C106.24,37.66,83.67,13.14,83.18,12.65Z"/><path class="77937d97-2d40-48df-8523-dc0c67ab1adc" d="M90.51,52.53a5.37,5.37,0,0,0,1-.07,1.9,1.9,0,0,0,1.65-1.91,1.94,1.94,0,0,0-1.84-1.85c-0.31,0-.62,0-0.92,0H47.07c-1.72,0-2.63.65-2.66,1.88s0.93,2,2.68,2H90.51Z"/><path class="77937d97-2d40-48df-8523-dc0c67ab1adc" d="M47.07,84.93H90.5c1.72,0,2.63-.64,2.67-1.88s-0.92-2-2.67-2H47.08c-1.74,0-2.71.72-2.67,2S45.36,84.93,47.07,84.93Z"/><path class="77937d97-2d40-48df-8523-dc0c67ab1adc" d="M45.88,68.94a7.08,7.08,0,0,0,1.29.08H90.5c1.77,0,2.71-.69,2.67-2s-0.92-1.87-2.66-1.87H47.08a6.45,6.45,0,0,0-1.2.08A1.87,1.87,0,0,0,45.88,68.94Z"/><path class="77937d97-2d40-48df-8523-dc0c67ab1adc" d="M36.66,51.34a3.54,3.54,0,0,0-3.46-3.67,3.6,3.6,0,0,0-3.57,3.49A3.53,3.53,0,0,0,33,54.7,3.47,3.47,0,0,0,36.66,51.34Z"/><path class="77937d97-2d40-48df-8523-dc0c67ab1adc" d="M33,70.06a3.47,3.47,0,0,0,3.64-3.37A3.54,3.54,0,0,0,33.2,63a3.6,3.6,0,0,0-3.57,3.49A3.53,3.53,0,0,0,33,70.06Z"/><path class="77937d97-2d40-48df-8523-dc0c67ab1adc" d="M33.18,86.55A3.55,3.55,0,0,0,36.67,83a3.48,3.48,0,0,0-3.54-3.48A3.54,3.54,0,0,0,29.62,83,3.6,3.6,0,0,0,33.18,86.55Z"/><path class="77937d97-2d40-48df-8523-dc0c67ab1adc" d="M85.54,17l-0.23-.25H79.68l0.11,19.86a2.14,2.14,0,0,0,2.15,2.13l20.87-.12V35.87C102.81,35.49,87.29,19.17,85.54,17ZM84.42,36a1.93,1.93,0,0,1-1.87-2c0-4.58.11-16.88,0.11-17.12L101.28,36Z"/><path class="77937d97-2d40-48df-8523-dc0c67ab1adc" d="M105.35,38.42L85.54,17c1.75,2.22,17.27,18.54,17.27,18.91v2.71h1.71C105.29,38.56,106.91,38.4,105.35,38.42Z"/><path class="77937d97-2d40-48df-8523-dc0c67ab1adc" d="M81.78,12.87A2.14,2.14,0,0,0,79.67,15v1.68h5.64Z"/></svg>