<svg id="67d3778b-9c16-4a17-abb3-6678f49cf82e" data-name="Capa 1" xmlns="http://www.w3.org/2000/svg" viewBox="0 0 120 120"><defs><style>.dc1b82fa-22ae-4daa-bc80-b89881f61737{fill:#fff;}</style></defs><title>meetings notes</title><path class="dc1b82fa-22ae-4daa-bc80-b89881f61737" d="M108.1,109.06a2.58,2.58,0,0,1-1.47-2.7q0-43.39,0-86.79V18.33H19.78v86.86H94a7.23,7.23,0,0,1,1.2.06,1.79,1.79,0,0,1,1.61,1.54,1.84,1.84,0,0,1-1.06,2.06l-0.41.2h-78l-1.48-1.48q0-45.84,0-91.69l1.48-1.48H109l1.48,1.48v91.69L109,109.06H108.1Z"/><path class="dc1b82fa-22ae-4daa-bc80-b89881f61737" d="M72.7,39.91H94.23c0.31,0,.62,0,0.92,0A1.94,1.94,0,0,1,97,41.78a1.9,1.9,0,0,1-1.65,1.91,5.37,5.37,0,0,1-1,.07H50.91c-1.75,0-2.71-.71-2.68-2s0.95-1.88,2.66-1.88H72.7Z"/><path class="dc1b82fa-22ae-4daa-bc80-b89881f61737" d="M72.61,83.56H50.9c-1.72,0-2.63-.65-2.67-1.88s0.93-2,2.67-2H94.33c1.74,0,2.71.72,2.67,2S96,83.56,94.33,83.56H72.61Z"/><path class="dc1b82fa-22ae-4daa-bc80-b89881f61737" d="M72.61,63.65H51a7.08,7.08,0,0,1-1.29-.08,1.87,1.87,0,0,1,0-3.66,6.45,6.45,0,0,1,1.2-.08H94.33c1.75,0,2.63.63,2.66,1.87s-0.9,2-2.67,2H72.61Z"/><path class="dc1b82fa-22ae-4daa-bc80-b89881f61737" d="M37,49.19a7.37,7.37,0,1,1,7.32-7.38A7.41,7.41,0,0,1,37,49.19ZM40.48,42A3.54,3.54,0,0,0,37,38.29a3.6,3.6,0,0,0-3.57,3.49,3.53,3.53,0,0,0,3.4,3.54A3.47,3.47,0,0,0,40.48,42Z"/><path class="dc1b82fa-22ae-4daa-bc80-b89881f61737" d="M37,68.55a7.37,7.37,0,1,1,7.32-7.38A7.41,7.41,0,0,1,37,68.55Zm3.46-7.23A3.54,3.54,0,0,0,37,57.65a3.6,3.6,0,0,0-3.57,3.49,3.53,3.53,0,0,0,3.4,3.54A3.47,3.47,0,0,0,40.48,61.32Z"/><path class="dc1b82fa-22ae-4daa-bc80-b89881f61737" d="M44.34,81.61A7.37,7.37,0,1,1,37,74.28,7.39,7.39,0,0,1,44.34,81.61ZM37,78.13a3.54,3.54,0,0,0-3.51,3.53A3.6,3.6,0,0,0,37,85.17a3.55,3.55,0,0,0,3.48-3.56A3.48,3.48,0,0,0,37,78.13Z"/></svg>