<svg id="e1ccf93c-cb9c-47b2-87d0-d0d9c9df1c13" data-name="Capa 1" xmlns="http://www.w3.org/2000/svg" viewBox="0 0 100 100"><defs><style>.\32 4e043c3-e8dc-4449-986e-a73317547b7a{fill:#8c8b8c;opacity:0.5;}</style></defs><title>non smoking</title><path class="24e043c3-e8dc-4449-986e-a73317547b7a" d="M17.34,68.2V59H38.82L17.31,37.47l3.87-3.88L73.52,85.95l-3.83,3.93-0.46-.61Q59,79,48.78,68.79a1.83,1.83,0,0,0-1.43-.61q-14.56,0-29.13,0H17.34Z"/><rect class="24e043c3-e8dc-4449-986e-a73317547b7a" x="66.77" y="58.97" width="4.56" height="9.2"/><rect class="24e043c3-e8dc-4449-986e-a73317547b7a" x="74.49" y="58.97" width="4.57" height="9.2"/><path class="24e043c3-e8dc-4449-986e-a73317547b7a" d="M63.59,67.75L54.82,59h8.77v8.77Z"/><path class="24e043c3-e8dc-4449-986e-a73317547b7a" d="M65.43,24.94a18.07,18.07,0,0,1,6.11,4.8,17.42,17.42,0,0,1,4,10.31c0.14,2.78,0,5.57,0,8.4H70.77c0-.5,0-1,0-1.46,0-2.17,0-4.35-.07-6.52A12.92,12.92,0,0,0,58.32,28.1l-0.49,0V23.22a6,6,0,0,0,4.88-2.6,5.79,5.79,0,0,0,1.06-3.51,6.09,6.09,0,0,0-6-5.93V6.47c2.66-.3,6.73,1.27,9,4.76a10.63,10.63,0,0,1,1.75,7.1,11,11,0,0,1-3.17,6.61"/><path class="24e043c3-e8dc-4449-986e-a73317547b7a" d="M67.44,48.47H62.67c0-1,.06-2,0-3a16.29,16.29,0,0,0-.46-3.73,5.56,5.56,0,0,0-5.22-4c-2.08-.16-4.17-0.05-6.26-0.13a10.84,10.84,0,0,1-1.53-21.45c0.67-.14,1.36-0.18,2.09-0.26v4.85c-0.59.11-1.19,0.18-1.77,0.34a5.66,5.66,0,0,0-3.61,8,6.3,6.3,0,0,0,4.41,3.74,5.64,5.64,0,0,0,1.13.09c2.11,0,4.23,0,6.32.14a10.75,10.75,0,0,1,9.44,7.71A5.11,5.11,0,0,1,67.43,42c0,2.15,0,4.29,0,6.46"/></svg>