<svg id="b9b3f730-c894-44af-8bfa-46601b52fc17" data-name="Capa 1" xmlns="http://www.w3.org/2000/svg" viewBox="0 0 100 100"><defs><style>.\37 c8e2b34-24b3-43e0-ac0b-0f6d8dbd1e38{opacity:0.5;}.\31 62ef974-5947-4ecf-a258-2b2e0fd211d6{font-size:21.94px;font-family:Helvetica;}.\31 62ef974-5947-4ecf-a258-2b2e0fd211d6,.e7fe9463-aebd-41be-98c8-a9069db23dbf{fill:#5d5d5d;}</style></defs><title>queen-1</title><g class="7c8e2b34-24b3-43e0-ac0b-0f6d8dbd1e38"><text class="162ef974-5947-4ecf-a258-2b2e0fd211d6" transform="translate(17.3 88.33)">Queen</text></g><g class="7c8e2b34-24b3-43e0-ac0b-0f6d8dbd1e38"><path class="e7fe9463-aebd-41be-98c8-a9069db23dbf" d="M9.64,35a7.09,7.09,0,0,1,2.08-3.89,12.3,12.3,0,0,1,2.64-1.6,1,1,0,0,0,.77-1.06c0-3.69,0-7.39,0-11.09,0-3.08,1.63-4.7,4.71-4.7H57.11c3,0,4.63,1.62,4.63,4.59,0,3.75,0,7.5,0,11.25a0.81,0.81,0,0,0,.69.95,6.57,6.57,0,0,1,4.76,6.1c0.1,3.18.05,6.37,0.05,9.56q0,6.11,0,12.21c0,1.54-.42,1.94-2,1.95H60.69A1.47,1.47,0,0,1,59,57.55c0-1.23,0-2.46,0-3.74H17.86c0,1.19,0,2.36,0,3.53,0,1.45-.44,1.89-1.85,1.89s-2.95,0-4.42,0a1.94,1.94,0,0,1-1.95-1V35Zm2.77,7.75h52c0-2.53,0-5,0-7.44a2.74,2.74,0,0,0-.36-1.14,4.29,4.29,0,0,0-4.23-2.35H17a7.43,7.43,0,0,0-1,.06,3.92,3.92,0,0,0-3.63,3.68c-0.12,2.37,0,4.76,0,7.18m52,2.88h-52V56.44h2.68c0-1.22,0-2.39,0-3.56,0-1.41.46-1.87,1.88-1.87H59.9c1.4,0,1.83.43,1.84,1.81,0,1.2,0,2.4,0,3.61h2.7V45.59ZM59,29v-0.8q0-5.5,0-11c0-1.42-.44-1.85-1.88-1.85H19.76c-1.46,0-1.9.46-1.9,1.93q0,5.46,0,10.92V29h2.69l0-.22c0-1.63,0-3.27,0-4.9,0-2.35,1.49-4.23,3.58-4.3,3.1-.11,6.21-0.09,9.31,0A3.83,3.83,0,0,1,37,22.82a18.42,18.42,0,0,1,.11,2.32c0,1.28,0,2.55,0,3.83h2.74c0-1.75,0-3.44,0-5.12A4.06,4.06,0,0,1,44,19.48c2.68-.06,5.36,0,8,0a4,4,0,0,1,3.35,1.61,4.22,4.22,0,0,1,.86,2.7c0,1.73,0,3.46,0,5.23H59ZM34.26,29c0-1.93.05-3.82,0-5.7a1.26,1.26,0,0,0-1.51-1.1c-2.57,0-5.14,0-7.71,0a1.45,1.45,0,0,0-1.66,1.68c0,1.1,0,2.2,0,3.29V29H34.26ZM53.5,29c0-1.88,0-3.72,0-5.55A1.29,1.29,0,0,0,52,22.22q-3.93,0-7.87,0a1.38,1.38,0,0,0-1.54,1.61c0,1,0,2.09,0,3.13v2H53.5Z"/><path class="e7fe9463-aebd-41be-98c8-a9069db23dbf" d="M72.73,42.85V51H70V31.13c0-1.69.4-2.09,2.08-2.09H89.89c1.62,0,2,.42,2,2.05q0,9.48,0,19V51h-2.7V42.85H72.73ZM72.78,40H89.15v-8.1H72.78V40Z"/><rect class="e7fe9463-aebd-41be-98c8-a9069db23dbf" x="78.3" y="34.59" width="5.38" height="2.63"/></g></svg>