<svg id="ac35f21a-b0ba-42c4-9466-a929435405b0" data-name="Capa 1" xmlns="http://www.w3.org/2000/svg" viewBox="0 0 120 120"><defs><style>.\33 e89c556-ead7-450d-a422-540834bbc4fa{fill:#fff;}</style></defs><title>registration form</title><path class="3e89c556-ead7-450d-a422-540834bbc4fa" d="M73.31,99.17H16.48V18.62h77.8V33.77q0,13.82,0,27.64a2.45,2.45,0,0,0,2.64,2.5,2.81,2.81,0,0,0,1.88-.61,2.3,2.3,0,0,0,.83-1.8q0-22.49,0-45c0-1.19-.58-1.87-2-2.34l-0.21-.08H13.05c-1.29.48-2.08,1.29-2.08,3.43Q11,50,11,82.41v18.4c0,2,1,2.85,3.43,2.85H73.19c0.25,0,.5,0,0.75,0a2.8,2.8,0,0,0,2.12-1.12,1.82,1.82,0,0,0,.13-2C75.67,99.57,74.83,99.17,73.31,99.17Z"/><path class="3e89c556-ead7-450d-a422-540834bbc4fa" d="M110.43,68a2.14,2.14,0,0,0-2.5.82q-4.8,5.36-9.61,10.7L88,91l-1.25-1.15-0.47-.44L84,87.2c-2.08-2-4.22-4.09-6.37-6.08a3.6,3.6,0,0,0-1.66-.86l-0.31,0a2,2,0,0,0-1.7,1.2,2.05,2.05,0,0,0,.56,2.52c3.55,3.44,7.76,7.51,12.06,11.6a2.36,2.36,0,0,0,1.62.74,2.67,2.67,0,0,0,1.75-1l21-23.4a5.87,5.87,0,0,0,.63-0.79,2.12,2.12,0,0,0,.19-1.85A2,2,0,0,0,110.43,68Z"/><path class="3e89c556-ead7-450d-a422-540834bbc4fa" d="M29.51,38.77H76.25c1.43,0,2.77,0,4.08-.06a3.84,3.84,0,0,0,2.35-.85,1.47,1.47,0,0,0,.46-1.76c-0.18-.39-0.72-1.56-4.05-1.56H29.57a12.25,12.25,0,0,0-1.58.09,3.65,3.65,0,0,0-2.09.92,1.42,1.42,0,0,0-.42,1.6C25.65,37.54,26.15,38.76,29.51,38.77Z"/><path class="3e89c556-ead7-450d-a422-540834bbc4fa" d="M82.9,56.91A1.32,1.32,0,0,0,83,55.18c-0.46-.67-1.26-1.36-3.69-1.36h-47c-1.32,0-2.66,0-4,.05a3.83,3.83,0,0,0-2.34.8,1.5,1.5,0,0,0-.55,1.77c0.17,0.4.68,1.62,4.07,1.62H79.09c0.46,0,.9,0,1.26,0A4,4,0,0,0,82.9,56.91Z"/><path class="3e89c556-ead7-450d-a422-540834bbc4fa" d="M38.66,72.53H29.51a11.2,11.2,0,0,0-1.72.1c-1.52.27-2.59,1.25-2.41,2.19,0.23,1.15,1.61,1.9,3.52,1.92,4.76,0,9.6,0,14.3,0h0.22c2.35,0,3.88-.84,3.88-2.11s-1.47-2.09-3.85-2.11C41.86,72.52,40.26,72.53,38.66,72.53Z"/><rect class="3e89c556-ead7-450d-a422-540834bbc4fa" x="25.12" y="34.33" width="58.85" height="4.6" rx="2.3" ry="2.3"/><rect class="3e89c556-ead7-450d-a422-540834bbc4fa" x="25.12" y="53.68" width="58.85" height="4.6" rx="2.3" ry="2.3"/><rect class="3e89c556-ead7-450d-a422-540834bbc4fa" x="24.8" y="72.24" width="23" height="4.76" rx="2.38" ry="2.38"/></svg>