<svg id="76d88914-838d-40a9-885e-505c6c97ba9d" data-name="Capa 1" xmlns="http://www.w3.org/2000/svg" viewBox="0 0 120 120"><defs><style>.c6447be2-3135-47f5-832e-78650f5d57c6{fill:#fff;}</style></defs><title>request-information</title><path class="c6447be2-3135-47f5-832e-78650f5d57c6" d="M73.21,100.37H16.38V19.82h77.8V35q0,13.82,0,27.64a2.45,2.45,0,0,0,2.64,2.5,2.81,2.81,0,0,0,1.88-.61,2.3,2.3,0,0,0,.83-1.8q0-22.49,0-45c0-1.19-.58-1.87-2-2.34l-0.21-.08H13c-1.29.48-2.08,1.29-2.08,3.43q0.07,32.45,0,64.89V102c0,2,1,2.85,3.43,2.85H73.09c0.25,0,.5,0,0.75,0A2.8,2.8,0,0,0,76,103.72a1.82,1.82,0,0,0,.13-2C75.57,100.77,74.73,100.37,73.21,100.37Z"/><path class="c6447be2-3135-47f5-832e-78650f5d57c6" d="M110.33,69.23a2.14,2.14,0,0,0-2.5.82q-4.8,5.36-9.61,10.7L87.9,92.23l-1.25-1.15-0.47-.44L83.86,88.4c-2.08-2-4.22-4.09-6.37-6.08a3.6,3.6,0,0,0-1.66-.86l-0.31,0a2,2,0,0,0-1.7,1.2,2.05,2.05,0,0,0,.56,2.52c3.55,3.44,7.76,7.51,12.06,11.6a2.36,2.36,0,0,0,1.62.74,2.67,2.67,0,0,0,1.75-1l21-23.4a5.87,5.87,0,0,0,.63-0.79,2.12,2.12,0,0,0,.19-1.85A2,2,0,0,0,110.33,69.23Z"/><rect class="c6447be2-3135-47f5-832e-78650f5d57c6" x="25.02" y="35.53" width="58.85" height="4.6" rx="2.3" ry="2.3"/><rect class="c6447be2-3135-47f5-832e-78650f5d57c6" x="25.02" y="54.88" width="58.85" height="4.6" rx="2.3" ry="2.3"/><rect class="c6447be2-3135-47f5-832e-78650f5d57c6" x="24.7" y="73.44" width="37.32" height="4.76" rx="2.38" ry="2.38"/></svg>