<svg id="ac761be3-9936-417f-be22-8ccf7c50a7a2" data-name="Capa 1" xmlns="http://www.w3.org/2000/svg" viewBox="0 0 188.81 120"><defs><style>.b3b11c22-80b4-44bb-b4a7-80b251b8e1a3{fill:#fff;}</style></defs><title>request information</title><path class="b3b11c22-80b4-44bb-b4a7-80b251b8e1a3" d="M57.87,18.4l-5.29,0c-3.83,0-7.79-.09-11.66.12C31.5,19,24.47,23.58,20,32.11a24.41,24.41,0,0,0-2.54,11.63c0,12.86,0,25.6,0,36.36,0,0.19,0,1.83-.95,2.26a6.12,6.12,0,0,0-3.1,3.74v6.42c1,2.84,3.05,4.13,6.34,4,2.3-.09,4.64-0.07,6.9-0.05,1.46,0,2.93,0,4.39,0,2.74,0,4.29-1.2,5.19-3.9A2.54,2.54,0,0,1,38,91.12,7,7,0,0,1,39.84,91l0.79,0h0.72v0.72a16.17,16.17,0,0,0,4.45,11.74,15.55,15.55,0,0,0,11.35,5,15.06,15.06,0,0,0,9.62-3.13,16,16,0,0,0,6.59-13.63V91.06h11.5c3.06,0,6.12,0,9.18,0,1.23,0,2-.6,2-1.61s-0.71-1.61-1.94-1.72c-0.28,0-.57,0-0.86,0H88c-4.3,0-8.75,0-13.13,0a3.1,3.1,0,0,1-3.25-2.06,16,16,0,0,0-17.8-8.62,15.66,15.66,0,0,0-11.12,9.09,2.73,2.73,0,0,1-1.83,1.49,17.76,17.76,0,0,1-2.7.07l-1,0H36.67l-0.25-.88c-0.08-.25-0.14-0.47-0.19-0.69C35.6,83.41,33.78,82,30.82,82c-2.12,0-4.24,0-6.37,0H20.94V61.74H39.23a6.94,6.94,0,0,0,1,0,1.69,1.69,0,0,0,1.65-1.81,1.72,1.72,0,0,0-2-1.5c-3.93,0-7.86,0-11.79,0H20.87V57.68c0-1.54,0-3.06,0-4.57,0-3.84,0-7.46.06-11.16A20.56,20.56,0,0,1,22,36,20.91,20.91,0,0,1,41.73,21.78q38.67-.06,77.32,0H146.2l0.94,0c9.91,0.43,18.5,8.13,19.6,17.52a98.16,98.16,0,0,1,.39,12.49c0,1.83,0,3.66,0,5.48a1,1,0,0,1-.22.6l-0.31.51H50.94a9.32,9.32,0,0,0-1.39.05,1.49,1.49,0,0,0-1.4,1.49,1.42,1.42,0,0,0,1.14,1.64,8.28,8.28,0,0,0,2,.16H167.07V82h-9.68c-2.2,0-3.66.64-4.58,2a10.68,10.68,0,0,0-1,2.1c-0.16.4-.33,0.82-0.53,1.25l-0.19.42h-2.16c-1.47,0-3,0-4.55,0a2.26,2.26,0,0,1-2.3-1.53c-3-6.39-8-9.59-14.8-9.48-6.59.09-11.43,3.28-14.37,9.49a2.3,2.3,0,0,1-2.45,1.52c-1.53,0-3.08,0-4.61,0h-0.91a6.2,6.2,0,0,0-1.27.12,1.45,1.45,0,0,0-1.33,1.76,1.41,1.41,0,0,0,1.5,1.43c1.62,0,3.24,0,4.86,0h2.75v0.71c0,10.16,8,16.63,15.33,16.79A15.61,15.61,0,0,0,137,105.33c4.35-3.31,6.48-7.75,6.53-13.57v-0.7h2.24c1.52,0,3,0,4.44,0a2,2,0,0,1,1.56,1.27c1.09,3.11,2.42,4.07,5.67,4.08,1.22,0,2.45,0,3.67,0,2.34,0,4.76,0,7.15.05,3.28,0.14,5.32-1.13,6.34-4V86.2c-0.24-.34-0.47-0.68-0.7-1A10.44,10.44,0,0,0,172,82.76a3.26,3.26,0,0,1-1.46-2.82l0-6.13c0-9.85.06-20-.06-30.06a28.86,28.86,0,0,0-1.29-8.66c-3.4-10.28-12.46-16.68-23.63-16.69q-23.92,0-47.85,0H75.84V17.69h-5V18.3H64.74V17.69h-5V18.4H57.87ZM57.44,80a12.82,12.82,0,0,1,9,4,12.48,12.48,0,0,1-9,21.19H57.1A12.59,12.59,0,0,1,44.73,92.44C44.89,85.68,50.79,79.86,57.44,80ZM22.07,85.32h3.54c1.62,0,3.24,0,4.86,0a2.52,2.52,0,0,1,1.94.62A2.45,2.45,0,0,1,33,87.78c0,0.58,0,1.08,0,1.52,0,1.87,0,2.73-.58,3.31a2.63,2.63,0,0,1-2,.52H29.71c-0.51,0-1.12,0-1.85,0H23.19c-1.36,0-2.71,0-4.06,0a2.43,2.43,0,0,1-1.81-.58,2.23,2.23,0,0,1-.57-1.7c0-.75,0-1.38,0-1.91,0-1.66,0-2.49.56-3.06s1.45-.57,3.16-0.55h1.6ZM136.2,101.65a12.43,12.43,0,0,1-8.65,3.51h-0.26a12.63,12.63,0,0,1-8.95-3.95,12.32,12.32,0,0,1-3.45-8.89,12.81,12.81,0,0,1,13-12.35,12.41,12.41,0,0,1,8.6,3.91A12.33,12.33,0,0,1,136.2,101.65ZM170.67,86a2.64,2.64,0,0,1,.62,2c0,0.68,0,1.25,0,1.74,0,1.56,0,2.34-.56,2.89s-1.34.54-2.9,0.52h-6.3c-1.41,0-2.82,0-4.23,0H157.2a2,2,0,0,1-2.2-2.22c0-.63,0-1.19,0-1.67,0-1.92,0-2.79.58-3.39s1.43-.56,3-0.54c0.48,0,1,0,1.69,0h4c1.46,0,2.93,0,4.39,0A2.81,2.81,0,0,1,170.67,86Z"/><path class="b3b11c22-80b4-44bb-b4a7-80b251b8e1a3" d="M88.35,52.92h25.47c2.09,0,2.51-.43,2.52-2.52q0-10,0-20c0-2-.51-2.46-2.45-2.46H74.19c-2,0-2.51.48-2.52,2.55q0,9.92,0,19.84c0,2.17.42,2.59,2.61,2.59H88.35ZM75.16,31.33h37.73V49.48H75.16V31.33Z"/><path class="b3b11c22-80b4-44bb-b4a7-80b251b8e1a3" d="M63.86,50.93c0-6.74,0-13.78,0-20.94,0-1.47-.57-2-2-2l-5.07,0c-5.15,0-10.47-.07-15.7.08-7.39.21-13.81,6.74-14,14.24-0.06,2.2,0,4.44,0,6.61v1.62c0,2,.43,2.44,2.4,2.44H61.64C63.34,52.91,63.86,52.44,63.86,50.93Zm-3.43-1.46H30.34l0-.74c0-1,0-2,0-2.91a16.77,16.77,0,0,1,.87-7.27c1.86-4.38,5.24-6.9,9.52-7.1S49.65,31.3,54,31.35c1.9,0,3.8,0,5.71,0h0.71V49.47Z"/><path class="b3b11c22-80b4-44bb-b4a7-80b251b8e1a3" d="M138.18,52.92H147c3.91,0,7.83,0,11.75,0,1.69,0,2.18-.49,2.2-2.16,0-2.59,0-5.17,0-7.76a15,15,0,0,0-15.17-15.05c-5.14,0-10.28,0-15.42,0h-3.78c-2,0-2.47.48-2.48,2.41q0,10.08,0,20.15c0,2,.44,2.42,2.43,2.42h11.61ZM127.57,31.28H136c3.14,0,6.29,0,9.44,0,7.22,0,12.11,4.93,12.18,12.16,0,1.19,0,2.38,0,3.6v2.45H127.57V31.28Z"/><path class="b3b11c22-80b4-44bb-b4a7-80b251b8e1a3" d="M127.5,84.4h0a8.14,8.14,0,0,0-5.75,14,8.51,8.51,0,0,0,5.85,2.42A8.2,8.2,0,0,0,127.5,84.4Zm0,13.06h0a5.07,5.07,0,0,1-4.88-4.86,4.82,4.82,0,0,1,1.44-3.37,4.91,4.91,0,0,1,3.43-1.47h0a4.89,4.89,0,0,1,3.42,1.45,4.77,4.77,0,0,1,1.44,3.38A5,5,0,0,1,127.5,97.46Z"/><path class="b3b11c22-80b4-44bb-b4a7-80b251b8e1a3" d="M57.34,100.81h0a8.28,8.28,0,0,0,5.86-2.51,8.11,8.11,0,0,0,2.37-5.79,8.19,8.19,0,0,0-8.23-8.1h0A8.2,8.2,0,0,0,57.34,100.81Zm-3.41-11.6a4.8,4.8,0,0,1,3.41-1.45h0a5,5,0,0,1,4.88,4.82,5.07,5.07,0,0,1-4.86,4.89h0a5,5,0,0,1-4.85-4.85A4.78,4.78,0,0,1,53.93,89.21Z"/></svg>