<svg id="081e8f0c-d017-4014-a205-45ff3dfc9bff" data-name="Capa 1" xmlns="http://www.w3.org/2000/svg" viewBox="0 0 183.76 120"><defs><style>.f0943f6c-aed5-436a-bdc5-9bdb43c9ec34{fill:#fff;}</style></defs><title>  request-information</title><path class="f0943f6c-aed5-436a-bdc5-9bdb43c9ec34" d="M48.27,12.17a42.88,42.88,0,0,1,4.6,1,20.17,20.17,0,0,1,14,19.43c0,2.65,0,5.3,0,8a2.21,2.21,0,0,0,.41,1.21A6.87,6.87,0,0,1,63.2,52.61a1.18,1.18,0,0,0-1.11,1.09A14.72,14.72,0,0,1,54.7,63.92,1.4,1.4,0,0,0,54,65.18c-0.16,1.23.41,1.84,1.36,2.56,4,3,8.7,4.61,13.2,6.6C74.46,77,78,81.55,78.6,88c0.42,4.7.19,9.46,0.22,14.19a1.4,1.4,0,0,1-1.4,1.45,6.66,6.66,0,0,1-.71,0H36.13a5,5,0,0,1-.8,0,1.43,1.43,0,0,1-1.27-1.49,1.4,1.4,0,0,1,1.4-1.35c0.92,0,1.84,0,2.92,0L30.87,73.93c-3.11,1.4-6.23,2.54-9.08,4.16a12.28,12.28,0,0,0-6.35,10.29c-0.27,4.06-.06,8.15-0.06,12.31h8.16c0-.29,0-0.6,0-0.92q0-4.47,0-8.93c0-.24,0-0.48,0-0.71a1.45,1.45,0,1,1,2.88,0c0,2.71,0,5.42,0,8.13,0,0.8,0,1.59,0,2.48h3.64a6.68,6.68,0,0,1,1.07,0,1.31,1.31,0,0,1,1.18,1.26,1.3,1.3,0,0,1-.93,1.45,3.3,3.3,0,0,1-1.05.12h-16c-1.57,0-2-.46-2-2q0-5.49,0-11a17.26,17.26,0,0,1,5-12.78,16.34,16.34,0,0,1,5.3-3.56c2.86-1.18,5.78-2.23,8.54-3.61a57,57,0,0,0,6.08-3.89c0.61-.41.35-2.44-0.31-2.82a14.3,14.3,0,0,1-7.12-8.88,3.66,3.66,0,0,0-2.7-3c-4.16-1.44-5.53-6.91-2.85-10.41a2.61,2.61,0,0,0,.51-1.44c0.06-3,0-6,.07-8.93a20.19,20.19,0,0,1,16.75-18.9c0.55-.09,1.1-0.21,1.65-0.32h5Zm3.5,20.35a24.91,24.91,0,0,1-9.06,5.66A40.23,40.23,0,0,1,32,40.47c0,3.65-.13,7.22,0,10.78a11.9,11.9,0,0,0,6.71,10.43c2.66,1.44,5.55,1.42,8.44,1.33,7.27-.23,12.32-5.47,12.32-12.75,0-3.12,0-6.25,0-9.37a0.93,0.93,0,0,0-.68-1.05A9,9,0,0,1,55,37.07C53.84,35.64,52.86,34.08,51.77,32.52Zm-24.1,7a3.8,3.8,0,0,0,1.43-.82,1.92,1.92,0,0,1,1.74-1.15c2.3-.28,4.63-0.46,6.88-1,5-1.1,9.58-3.2,13-7.29,0.54-.65,1-1.48,2.06-1.27s1.12,1.18,1.41,2c1.33,3.56,3.23,6.57,7.2,7.67a1.36,1.36,0,0,1,.85.7c0.29,0.93,1,.83,1.63.89,0-2.76.17-5.48,0-8.17C63.32,24.72,60.09,20,54.5,17c-3.44-1.87-7.18-2.15-11-1.85A17.49,17.49,0,0,0,28.38,27.6C27.32,31.45,27.89,35.35,27.67,39.53Zm37,61.21c0-.45,0-0.8,0-1.15,0-3.16,0-6.31,0-9.47a1.44,1.44,0,1,1,2.87,0c0,0.24,0,.48,0,0.71q0,4.47,0,8.93v1h8.3c0-.2,0-0.35,0-0.49,0-3.81,0-7.63-.16-11.43a13,13,0,0,0-4.48-9.32c-3.05-2.75-7.06-3.54-10.66-5.34l-7.45,26.6H64.71ZM45.08,75.62c2.15-1.94,4-3.59,5.81-5.25a0.71,0.71,0,0,0,.21-0.46c0-1.47,0-2.94,0-4.29-1.85.11-3.6,0.3-5.35,0.3s-3.53-.19-5.35-0.3c0,1.51,0,3.08,0,4.66a1,1,0,0,0,.27.61C42.25,72.57,43.81,74.24,45.08,75.62ZM47.47,88c-1,0-2,0-2.92,0a0.85,0.85,0,0,0-.56.57c-0.31,1.66-.57,3.34-0.84,5-0.38,2.37-.76,4.74-1.14,7.15h7.51Zm5.83-6.27,4.37-9-3.4-2.24a11.77,11.77,0,0,1-1.1,1.71c-1.72,1.85-3.49,3.65-5.3,5.52Zm-19.65-9,4.38,9,5.22-3.84c-1.47-1.58-2.88-3.16-4.37-4.65-0.81-.8-1.55-1.56-1.37-2.81a0.55,0.55,0,0,0-.17-0.12ZM51.55,95l0.22,0,2.74-9.77c-1.49.39-2.15-.85-3.32-1.36-0.32,1.07-1,2.13-.88,3.12C50.56,89.67,51.12,92.31,51.55,95ZM40.14,83.86l-3,1.78L39.8,95c0.61-2.65,1-5.26,1.45-7.88a1.77,1.77,0,0,0-.11-0.86C40.84,85.49,40.49,84.71,40.14,83.86ZM48.85,82l-3.19-2.35L42.52,82c0.39,0.94.72,1.8,1.12,2.62a0.9,0.9,0,0,0,.65.42c1.13,0,2.26,0,3.41,0Zm13.64-40v7.68A3.86,3.86,0,0,0,65.74,46,3.93,3.93,0,0,0,62.49,42.06ZM29.06,49.73V42.06A3.9,3.9,0,0,0,25.79,46,3.84,3.84,0,0,0,29.06,49.73Z"/><path class="f0943f6c-aed5-436a-bdc5-9bdb43c9ec34" d="M140.58,12.91c1.85,0.39,3.75.63,5.55,1.21A27,27,0,0,1,160.74,25.6a35.73,35.73,0,0,1,5.7,20.61,35.64,35.64,0,0,1-5.24,18.25c-0.62,1-1.35,2-2,2.93a1.5,1.5,0,0,1-2,.59,50.86,50.86,0,0,0-9.9-2.81,0.73,0.73,0,0,0-.23.05v4.86c1,0.26,2.07.55,3.13,0.79,3.71,0.82,7,2.64,10.55,4A16.64,16.64,0,0,1,167,79a15.81,15.81,0,0,1,4.45,10.51c0.16,4.24.11,8.49,0.14,12.74,0,1.38-.53,1.89-1.89,1.89H129.11a3.06,3.06,0,0,1-.71,0,1.35,1.35,0,0,1-1.17-1.46,1.29,1.29,0,0,1,1.29-1.34c0.94-.06,1.9,0,3,0l-7.41-26.44c-0.54.22-1,.39-1.52,0.6A73,73,0,0,0,114.82,79a12.44,12.44,0,0,0-6.1,10.41c-0.23,3.76-.09,7.54-0.12,11.31a3.7,3.7,0,0,0,.07.49h8.17c0-.36,0-0.68,0-1,0-3.15,0-6.3,0-9.45a1.42,1.42,0,0,1,2.8-.43,4.21,4.21,0,0,1,.06.88q0,4.5,0,9v1h4a6.05,6.05,0,0,1,1,0,1.41,1.41,0,0,1,.11,2.77,4,4,0,0,1-1,.06h-16c-1.61,0-2.1-.46-2.09-2.05,0-4.19-.1-8.38.15-12.56,0.41-6.75,3.85-11.59,10-14.4,2.64-1.21,5.32-2.35,8.05-3.33,1.86-.67,3.83-1,5.76-1.52l0.91-.23V65.21a44.44,44.44,0,0,0-9,2.33c-2.34.94-2.36,1-3.84-1.13-5.48-7.76-7.37-16.4-6.27-25.76a34.06,34.06,0,0,1,5.76-15.53,27.08,27.08,0,0,1,15.86-11.49c1.4-.36,2.86-0.49,4.29-0.73h3.21ZM127.06,62.85a0.43,0.43,0,0,0,0-.13,15.42,15.42,0,0,1-4.49-8.42,1,1,0,0,0-.72-0.57,6.82,6.82,0,0,1-.13-13.41,1,1,0,0,0,.66-0.34c0.25-1,1.1-1.15,1.88-1.41A34.44,34.44,0,0,0,137.54,31c1-.92,1.63-0.83,2.59.09a38.13,38.13,0,0,0,3.77,3.37,26.61,26.61,0,0,0,9.88,4.32,4.67,4.67,0,0,1,1.4.94,2.91,2.91,0,0,0,.83.62A6.87,6.87,0,0,1,161.44,47a6.78,6.78,0,0,1-5.59,6.65,0.86,0.86,0,0,0-.83.84,13.75,13.75,0,0,1-2.5,5.93c-0.61.83-1.3,1.59-2,2.39l6.89,2a29.8,29.8,0,0,0,3.85-7.1,34.17,34.17,0,0,0,.13-24.38c-2.33-6.36-6.23-11.54-12.24-14.86a20.43,20.43,0,0,0-20.28-.25c-6.64,3.45-10.74,9.12-13.1,16.09a34.11,34.11,0,0,0-.36,20.94,29.78,29.78,0,0,0,4.72,9.55ZM138.52,34c-0.62.49-1.34,1.11-2.11,1.66A38.29,38.29,0,0,1,125.91,41a0.83,0.83,0,0,0-.72.91c0,3.44,0,6.89.05,10.33a12,12,0,0,0,7.94,10.91c2.53,0.95,5.15.77,7.75,0.69a12,12,0,0,0,11.42-11.3c0.13-3.5,0-7,.08-10.51a0.79,0.79,0,0,0-.72-0.91,25.06,25.06,0,0,1-7.22-2.94C142.48,37,140.58,35.49,138.52,34Zm19,67.23c0-1.3,0-2.51,0-3.73,0-2.23,0-4.45,0-6.68a1.45,1.45,0,0,1,2.07-1.5,1.6,1.6,0,0,1,.8,1.65c0,3.09,0,6.17,0,9.26,0,0.32,0,.63,0,1h8.18a4.41,4.41,0,0,0,.06-0.5c0-3.74.11-7.49-.11-11.22a12.34,12.34,0,0,0-6-10.43,83.73,83.73,0,0,0-8.81-4,0.56,0.56,0,0,0-.22.07l-7.31,26.1h11.38Zm-8.6-20.64a24.65,24.65,0,0,1-20.13.09,4.63,4.63,0,0,0,.06.53c1.81,6.45,3.63,12.89,5.42,19.35a0.83,0.83,0,0,0,1,.71c2.32,0,4.63,0,6.95,0a1,1,0,0,0,1.21-.91c1.28-4.69,2.61-9.36,3.92-14C147.85,84.5,148.36,82.66,148.93,80.61Zm-22.09-6.67a16.36,16.36,0,0,0,.61,2.14,2.4,2.4,0,0,0,.93,1.16c7.08,3.64,14.15,3.68,21.18-.18a1,1,0,0,0,.48-0.46c0.27-.83.49-1.68,0.74-2.57L146,72.81c-1.79-.45-1.93-0.62-1.93-2.5,0-1.29,0-2.59,0-3.94a30.3,30.3,0,0,1-10.59,0c0,1.48,0,2.87,0,4.27s-0.29,1.78-1.64,2.1Zm28.54-23.1a3.91,3.91,0,0,0,3.19-4.08,3.72,3.72,0,0,0-3.19-3.51v7.58Zm-33.12-7.6A3.81,3.81,0,0,0,119,47a3.86,3.86,0,0,0,3.21,3.83V43.23Z"/></svg>