<svg id="da7be517-d9c5-4a3c-b400-3e5696d403ed" data-name="Capa 1" xmlns="http://www.w3.org/2000/svg" viewBox="0 0 120 120"><defs><style>.\35 159ba57-6c06-4e31-9c6c-73d74302136e{fill:#fff;}</style></defs><title>request group hotel reg </title><path class="5159ba57-6c06-4e31-9c6c-73d74302136e" d="M13.38,116.14v-3.41h6.76V54.59c-0.52,0-1,0-1.45,0a1.76,1.76,0,0,1-1.89-1.89q0-4.1,0-8.21a1.75,1.75,0,0,1,1.89-1.88c0.48,0,1,0,1.51,0,0-2.21,0-4.28,0-6.34,0-1.56.62-2.17,2.18-2.2,1,0,1.91,0,3,0V32.73c0-5.61,0-11.21,0-16.82a2.29,2.29,0,0,1,1.26-2.38h76.15A2.33,2.33,0,0,1,104,15.93c0,5.64,0,11.29,0,16.93v1.2h1.38c3.74,0,3.78,0,3.78,3.83V42.6c0.57,0,1,0,1.43,0a1.77,1.77,0,0,1,2,1.91q0.05,4.11,0,8.21a1.74,1.74,0,0,1-1.82,1.85c-0.49,0-1,0-1.52,0v58.15h6.7v3.4H13.38Zm10.33-3.47h82v-58h-82v58ZM28.83,34H100.5V17H28.83V34ZM20.27,51.12h88.83v-5H20.27v5Zm85.42-13.57h-82v5h82v-5Z"/><path class="5159ba57-6c06-4e31-9c6c-73d74302136e" d="M28.78,69.91c0-2.67,0-5.34,0-8,0-1.58.59-2.19,2.18-2.19q5.51,0,11,0c1.56,0,2.17.63,2.18,2.21q0,8.06,0,16.13c0,1.57-.64,2.19-2.19,2.2q-5.51,0-11,0c-1.56,0-2.16-.63-2.16-2.21,0-2.71,0-5.41,0-8.11m3.48,6.82h8.42V63.19H32.26V76.73Z"/><path class="5159ba57-6c06-4e31-9c6c-73d74302136e" d="M28.78,97.34c0-2.7,0-5.41,0-8.11,0-1.58.6-2.16,2.2-2.16H42c1.52,0,2.15.6,2.16,2.11q0,8.11,0,16.23c0,1.58-.61,2.15-2.21,2.15q-5.46,0-10.92,0c-1.71,0-2.24-.56-2.24-2.31q0-4,0-7.91m11.87-6.81H32.26V104.1h8.39V90.54Z"/><path class="5159ba57-6c06-4e31-9c6c-73d74302136e" d="M57.85,69.85c0-2.64,0-5.28,0-7.91,0-1.64.58-2.23,2.24-2.23q5.46,0,10.92,0c1.61,0,2.22.64,2.23,2.27q0,8,0,16c0,1.61-.65,2.23-2.27,2.24q-5.46,0-10.92,0c-1.58,0-2.19-.62-2.2-2.18,0-2.74,0-5.48,0-8.21m3.47,6.9h8.42V63.18H61.33V76.75Z"/><path class="5159ba57-6c06-4e31-9c6c-73d74302136e" d="M100.57,69.95c0,2.67,0,5.34,0,8,0,1.69-.59,2.27-2.3,2.28H87.45c-1.62,0-2.26-.63-2.27-2.24q0-8,0-16c0-1.63.62-2.26,2.23-2.27q5.46,0,10.92,0c1.66,0,2.24.6,2.24,2.23,0,2.67,0,5.34,0,8M97.13,63.2H88.68V76.75h8.45V63.2Z"/><path class="5159ba57-6c06-4e31-9c6c-73d74302136e" d="M100.57,97.4c0,2.67,0,5.34,0,8,0,1.54-.58,2.14-2.1,2.15q-5.61,0-11.22,0a1.77,1.77,0,0,1-2.06-2q0-8.21,0-16.43c0-1.44.67-2.05,2.12-2.06H98.43c1.53,0,2.13.6,2.14,2.11,0,2.74,0,5.48,0,8.21m-3.5-6.87H88.66v13.56h8.41V90.53Z"/><path class="5159ba57-6c06-4e31-9c6c-73d74302136e" d="M57.85,97.34c0-2.67,0-5.34,0-8,0-1.67.57-2.26,2.2-2.26h11c1.51,0,2.16.61,2.16,2.11q0,8.11,0,16.23c0,1.53-.62,2.14-2.12,2.15q-5.56,0-11.12,0c-1.58,0-2.14-.59-2.14-2.2,0-2.67,0-5.34,0-8m11.92-6.79H61.33v13.52h8.44V90.55Z"/><path class="5159ba57-6c06-4e31-9c6c-73d74302136e" d="M51.21,25.1a5.63,5.63,0,1,1,11.26,0,5.63,5.63,0,1,1-11.26,0m9.1,0c0-2.47-1.3-4-3.48-4S53.32,22.66,53.29,25s1.35,4,3.52,4,3.48-1.43,3.5-3.84"/><polygon class="5159ba57-6c06-4e31-9c6c-73d74302136e" points="42.22 25.84 42.22 30.56 40.24 30.56 40.24 19.6 42.22 19.6 42.22 24.26 47.43 24.26 47.43 19.57 49.47 19.57 49.47 30.55 47.49 30.55 47.49 25.84 42.22 25.84"/><polygon class="5159ba57-6c06-4e31-9c6c-73d74302136e" points="72.69 30.54 72.69 19.6 79.62 19.6 79.62 21.12 74.77 21.12 74.77 24.21 78.55 24.21 78.55 25.8 74.77 25.8 74.77 28.92 79.6 28.92 79.6 30.54 72.69 30.54"/><polygon class="5159ba57-6c06-4e31-9c6c-73d74302136e" points="68.02 30.57 65.94 30.57 65.94 21.21 62.6 21.21 62.6 19.59 71.25 19.59 71.25 21.16 68.02 21.16 68.02 30.57"/><polygon class="5159ba57-6c06-4e31-9c6c-73d74302136e" points="87.91 28.95 87.91 30.56 81.54 30.56 81.54 19.6 83.51 19.6 83.51 28.95 87.91 28.95"/></svg>