<svg id="cef5382b-afb6-4cb4-8cd4-28f4aca7bbfd" data-name="Capa 1" xmlns="http://www.w3.org/2000/svg" viewBox="0 0 120 120"><defs><style>.\31 d0a490d-7e68-4e26-9651-89fa92bfd7f0{fill:#fff;}</style></defs><title>requestinformation</title><path class="1d0a490d-7e68-4e26-9651-89fa92bfd7f0" d="M73.4,98H16.58V17.41h77.8V32.56q0,13.82,0,27.64A2.45,2.45,0,0,0,97,62.69a2.81,2.81,0,0,0,1.88-.61,2.3,2.3,0,0,0,.83-1.8q0-22.49,0-45c0-1.19-.58-1.87-2-2.34l-0.21-.08H13.15c-1.29.48-2.08,1.29-2.08,3.43q0.07,32.45,0,64.89V99.6c0,2,1,2.85,3.43,2.85H73.29c0.25,0,.5,0,0.75,0a2.8,2.8,0,0,0,2.12-1.12,1.82,1.82,0,0,0,.13-2C75.76,98.36,74.92,98,73.4,98Z"/><path class="1d0a490d-7e68-4e26-9651-89fa92bfd7f0" d="M110.53,66.82a2.14,2.14,0,0,0-2.5.82q-4.8,5.36-9.61,10.7L88.1,89.82l-1.25-1.15-0.47-.44L84.05,86C82,84,79.83,81.9,77.68,79.9A3.6,3.6,0,0,0,76,79l-0.31,0a2,2,0,0,0-1.7,1.2,2.05,2.05,0,0,0,.56,2.52c3.55,3.44,7.76,7.51,12.06,11.6a2.36,2.36,0,0,0,1.62.74,2.67,2.67,0,0,0,1.75-1l21-23.4a5.87,5.87,0,0,0,.63-0.79,2.12,2.12,0,0,0,.19-1.85A2,2,0,0,0,110.53,66.82Z"/><path class="1d0a490d-7e68-4e26-9651-89fa92bfd7f0" d="M29.61,37.56H76.34c1.43,0,2.77,0,4.08-.06a3.84,3.84,0,0,0,2.35-.85,1.47,1.47,0,0,0,.46-1.76c-0.18-.39-0.72-1.56-4.05-1.56H29.67a12.25,12.25,0,0,0-1.58.09,3.65,3.65,0,0,0-2.09.92,1.42,1.42,0,0,0-.42,1.6C25.75,36.33,26.24,37.55,29.61,37.56Z"/><path class="1d0a490d-7e68-4e26-9651-89fa92bfd7f0" d="M83,55.7A1.32,1.32,0,0,0,83.12,54c-0.46-.67-1.26-1.36-3.69-1.36h-47c-1.32,0-2.66,0-4,.05a3.83,3.83,0,0,0-2.34.8,1.5,1.5,0,0,0-.55,1.77c0.17,0.4.68,1.62,4.07,1.62H79.18c0.46,0,.9,0,1.26,0A4,4,0,0,0,83,55.7Z"/><path class="1d0a490d-7e68-4e26-9651-89fa92bfd7f0" d="M38.76,71.32H29.61a11.2,11.2,0,0,0-1.72.1c-1.52.27-2.59,1.25-2.41,2.19,0.23,1.15,1.61,1.9,3.52,1.92,4.76,0,9.6,0,14.3,0h0.22c2.35,0,3.88-.84,3.88-2.11s-1.47-2.09-3.85-2.11C42,71.31,40.36,71.32,38.76,71.32Z"/><rect class="1d0a490d-7e68-4e26-9651-89fa92bfd7f0" x="25.21" y="33.12" width="58.85" height="4.6" rx="2.3" ry="2.3"/><rect class="1d0a490d-7e68-4e26-9651-89fa92bfd7f0" x="25.21" y="52.47" width="58.85" height="4.6" rx="2.3" ry="2.3"/><rect class="1d0a490d-7e68-4e26-9651-89fa92bfd7f0" x="24.89" y="71.03" width="23" height="4.76" rx="2.38" ry="2.38"/></svg>