<svg id="8de56788-f7fd-4231-b88c-145fec9c2223" data-name="Capa 1" xmlns="http://www.w3.org/2000/svg" viewBox="0 0 120 147.64"><defs><style>.\32 83b7e55-60e8-4c98-bc3e-c3b932143758{fill:#fff;}</style></defs><title>seating and flyer details </title><path class="283b7e55-60e8-4c98-bc3e-c3b932143758" d="M48.8,118h4.37l0,21.59h3.47l0-21.71h5.91c2.68,0,5.46,0,8.18-.09a6.27,6.27,0,0,0,6.07-6.26c0-1.07,0-2.14,0-3.21V107c0-2.66,0-3-2.07-3.16l-1-.11a0.54,0.54,0,0,1-.37-0.35l0-.36c-0.13-.32-0.25-0.62-0.36-0.93a9.88,9.88,0,0,0-1.14-2.36A6.89,6.89,0,0,0,65.86,97l-16.77,0H40.27V89.3h7.33l22.41,0c0.18,0,.33,0,0.51,0a2.38,2.38,0,0,0,1.14-.11,3,3,0,0,0,1.24-1.51,1.1,1.1,0,0,0-.08-0.87A1.3,1.3,0,0,0,72,86.2,7.72,7.72,0,0,0,70,86L48.11,86h-8v-7q0-5.48,0-11c0-1.35,0-2.69,0-4,0-3.36,0-6.83-.14-10.22a7.12,7.12,0,0,0-3.69-6,7.61,7.61,0,0,0-7.41,0c-2.12,1.16-3.11,3.15-3.86,5.14l0.09,59.71c1.14,2.8,2.52,4.23,4.61,4.77a12.15,12.15,0,0,0,3,.32c2.94,0,5.88,0,8.86,0h3.76l0,21.7h3.46Zm-7.6-17.84c0.34,0,.68,0,1,0h4c6.43,0,12.86,0,19.29,0a6.71,6.71,0,0,1,2.82.56,3.89,3.89,0,0,1,1.29,1.21c0.14,0.18.28,0.36,0.43,0.52l-0.48,1.2-29.29,0v-3.41Zm-8.48,14.51h0c-3.55,0-4.58-1-4.58-4.56l0-9.55c0-14.71-.05-29.93,0-44.89a7.83,7.83,0,0,1,1.21-4,3.56,3.56,0,0,1,4.06-1.31,4.2,4.2,0,0,1,3.12,3,6.31,6.31,0,0,1,.22,1.77q0,14.59,0,29.18c0,0.23,0,.47,0,0.78l-0.05,1H35.07c-0.75,0-1.46,0-2.14,0a1.52,1.52,0,0,0-1.65,1.67A1.47,1.47,0,0,0,33,89.29c0.7,0,1.41,0,2.17,0h1.62v9q0,3.14,0,6.28c0,2.26.32,2.58,2.58,2.58h0l22.7,0,11.15,0v0.5c0,0.46,0,.92,0,1.37a12,12,0,0,1-.14,3.25c-0.23,1-1.42,1.68-2.28,2.2a2.72,2.72,0,0,1-1.57.21c-0.16,0-.33,0-0.46,0Z"/><path d="M73.88,103.24c-0.09,0-.06,0,0,0h0Z"/><path d="M73.88,103.24l0.07,0v0H73.88Z"/><path class="283b7e55-60e8-4c98-bc3e-c3b932143758" d="M96.35,27.18A22.82,22.82,0,0,0,96,23.53,22,22,0,0,0,74.44,5.58h0C63.94,5.58,54.54,13.4,53,23.4a72.36,72.36,0,0,0-.59,9.5c0,1.3.08,3.9,0.08,3.9v0.48c0,0.93,0,1.86,0,2.79,0,2.09-.06,4.25.08,6.35A30.3,30.3,0,0,0,53.74,54C57,63.74,66.47,69.45,77.28,68.19s18.54-9.36,19-20.13c0.22-5.1.16-10.31,0.1-15.35C96.38,30.87,96.36,29,96.35,27.18ZM55.9,42.24a1.76,1.76,0,0,1-.1-0.53h0c0-1.55,0-3.11,0-4.66,0-3.56-.06-7.23.1-10.85A18.54,18.54,0,0,1,74.4,8.81h0.14C84.33,8.88,92.63,16.69,93,26.22c0.15,3.65.12,7.38,0.09,11,0,1.67,0,3.36,0,5v0.5l-37,.06L56,42.43ZM89,58.83a19.14,19.14,0,0,1-13.56,6.29H74.68A18.7,18.7,0,0,1,61.27,59.8,17.75,17.75,0,0,1,56,46.71l0-.48,37.2-.06,0,0.46A16.32,16.32,0,0,1,89,58.83Z"/><path class="283b7e55-60e8-4c98-bc3e-c3b932143758" d="M69.58,37.37c1.11,0,2.22,0,3.32,0h2.95c1.16,0,2.32,0,3.48,0a1.57,1.57,0,0,0,1.81-1.53,1.63,1.63,0,0,0-1.74-1.65c-1.46,0-3,0-4.45,0-1.8,0-3.62,0-5.45,0a1.81,1.81,0,0,0-1.31.49,1.55,1.55,0,0,0-.41,1.14A1.6,1.6,0,0,0,69.58,37.37Z"/><rect class="283b7e55-60e8-4c98-bc3e-c3b932143758" x="21.1" y="137.61" width="56.23" height="3.84" rx="1.92" ry="1.92"/></svg>