<svg id="7a5420ca-7df3-4bf9-88fd-2511b235cd43" data-name="Capa 1" xmlns="http://www.w3.org/2000/svg" viewBox="0 0 100 100"><defs><style>.\31 d28d5d4-a1b4-4cb1-97ca-0a07dc4d7df8{fill:#8c8b8c;opacity:0.5;}</style></defs><title>smoking1</title><path class="1d28d5d4-a1b4-4cb1-97ca-0a07dc4d7df8" d="M19.36,70.09V60.35l0.63,0H68v9.73H20.24c-0.29,0-.59,0-0.88,0"/><path class="1d28d5d4-a1b4-4cb1-97ca-0a07dc4d7df8" d="M84.18,57H79.36c0-.51,0-1,0-1.47,0-2.17,0-4.35-.06-6.51A12.93,12.93,0,0,0,66.9,36.67l-0.49,0V31.78a6,6,0,0,0,4.88-2.6,5.8,5.8,0,0,0,1.06-3.5,6.1,6.1,0,0,0-6-5.94V15a5.94,5.94,0,0,1,.66,0,10.8,10.8,0,0,1,10.1,11.9A11,11,0,0,1,74,33.51a17.93,17.93,0,0,1,6.11,4.8,17.49,17.49,0,0,1,4,10.31c0.14,2.78,0,5.57,0,8.4"/><path class="1d28d5d4-a1b4-4cb1-97ca-0a07dc4d7df8" d="M76,57H71.25c0-1,.06-2,0-3a15.8,15.8,0,0,0-.46-3.73,5.54,5.54,0,0,0-5.21-4c-2.08-.17-4.17-0.06-6.26-0.14a10.84,10.84,0,0,1-1.53-21.45c0.67-.13,1.37-0.18,2.09-0.27V29.3c-0.59.1-1.19,0.18-1.76,0.33a5.66,5.66,0,0,0-3.61,8,6.29,6.29,0,0,0,4.4,3.74,6.53,6.53,0,0,0,1.14.08c2.11,0,4.23,0,6.32.14a10.77,10.77,0,0,1,9.45,7.71A4.67,4.67,0,0,1,76,50.57c0,2.15,0,4.29,0,6.46"/><rect class="1d28d5d4-a1b4-4cb1-97ca-0a07dc4d7df8" x="71.29" y="60.37" width="4.78" height="9.63"/><rect class="1d28d5d4-a1b4-4cb1-97ca-0a07dc4d7df8" x="79.4" y="60.36" width="4.78" height="9.65"/></svg>