<svg id="8efe304f-2f9e-4a0b-b94c-ad865b07d5c1" data-name="Capa 1" xmlns="http://www.w3.org/2000/svg" viewBox="0 0 120 120"><defs><style>.c625d9b2-7d05-4c4a-8815-374d1b453221{fill:#2881bd;}</style></defs><title>train </title><path class="c625d9b2-7d05-4c4a-8815-374d1b453221" d="M100.85,19.92a105.22,105.22,0,0,0-27.19-6.79c-1.46-.15-2.91-0.28-4.37-0.41l-1.91-.17H59.24l-0.52.06-1.12.13L54.8,13c-1.95.17-4,.35-5.93,0.64a123.08,123.08,0,0,0-24.21,6.21,1.47,1.47,0,0,0-1.13,1.62q0,29.75,0,59.5V95.84c0,0.23,0,.47,0,0.72l0,0.7H30.8l-5.6,15.42L28.79,114l0.6-1.64c0.41-1.12.82-2.21,1.19-3.32a0.64,0.64,0,0,1,.75-0.53c21.35,0,42.77,0,63.63,0a0.78,0.78,0,0,1,.88.58c0.48,1.13,1,2.23,1.52,3.38l0.77,1.67,3.47-1.6-7-15.35h7V38.59q0-8.58,0-17.17A1.32,1.32,0,0,0,100.85,19.92ZM32.23,104.58l0.42-1.17c0.74-2,1.45-4,2.19-6a0.77,0.77,0,0,1,.38-0.22,1.46,1.46,0,0,1,.45,0H46.33q21.58,0,43.14,0h0a1.23,1.23,0,0,1,1.39.88c0.69,1.64,1.41,3.22,2.19,4.9l0.74,1.61H32.23ZM97.76,93.31H27.5V68.19H97.76V93.31ZM27.5,64.25V32.69H60.67V64.25H27.5Zm70.26,0H64.6V32.73H97.76V64.28Zm0.07-36.64v1.08H27.43v-1.1c0-1.53,0-3,0-4.44a0.86,0.86,0,0,1,.42-0.42A99,99,0,0,1,66,16.54a99.46,99.46,0,0,1,31.41,6.23,0.87,0.87,0,0,1,.42.41C97.84,24.65,97.83,26.1,97.83,27.64Z"/><path class="c625d9b2-7d05-4c4a-8815-374d1b453221" d="M44.87,89.14h0a8.37,8.37,0,0,0,0-16.73H44.83a8.36,8.36,0,0,0-5.94,2.52,8.25,8.25,0,0,0-2.38,5.91A8.43,8.43,0,0,0,44.87,89.14ZM41.65,77.6a4.57,4.57,0,0,1,3.22-1.38h0a4.54,4.54,0,0,1,4.5,4.53,4.47,4.47,0,0,1-4.49,4.52h0A4.49,4.49,0,0,1,41.65,77.6Z"/><path class="c625d9b2-7d05-4c4a-8815-374d1b453221" d="M80.33,89.14h0.13a8.17,8.17,0,0,0,5.74-2.39,8.36,8.36,0,0,0,2.55-6,8.39,8.39,0,0,0-8.37-8.38,8.35,8.35,0,0,0-6,2.5A8.22,8.22,0,0,0,72,80.79,8.5,8.5,0,0,0,80.33,89.14Zm0.05-12.91h0a4.56,4.56,0,0,1,4.54,4.51,4.43,4.43,0,0,1-1.3,3.19,4.55,4.55,0,0,1-3.25,1.35h0a4.49,4.49,0,0,1-4.49-4.52A4.6,4.6,0,0,1,80.38,76.23Z"/><rect class="c625d9b2-7d05-4c4a-8815-374d1b453221" x="51.1" y="20.81" width="23.07" height="3.69"/></svg>